<?xml version="1.0" encoding="UTF-8" standalone="no"?>
<!-- Created with Inkscape (http://www.inkscape.org/) -->
<svg xmlns:dc="http://purl.org/dc/elements/1.1/" xmlns:cc="http://creativecommons.org/ns#" xmlns:rdf="http://www.w3.org/1999/02/22-rdf-syntax-ns#" xmlns:svg="http://www.w3.org/2000/svg" xmlns="http://www.w3.org/2000/svg" xmlns:sodipodi="http://sodipodi.sourceforge.net/DTD/sodipodi-0.dtd" xmlns:inkscape="http://www.inkscape.org/namespaces/inkscape" width="1650" height="2000" id="svg2" version="1.1" inkscape:version="0.48.4 r9939" sodipodi:docname="AUT.svg">
  <defs id="defs4"/>
  <sodipodi:namedview id="base" pagecolor="#ffffff" bordercolor="#666666" borderopacity="1.0" inkscape:pageopacity="0.0" inkscape:pageshadow="2" inkscape:zoom="0.12374369" inkscape:cx="-85.017463" inkscape:cy="557.04428" inkscape:document-units="px" inkscape:current-layer="layer1" showgrid="false" inkscape:window-width="1280" inkscape:window-height="962" inkscape:window-x="-8" inkscape:window-y="-8" inkscape:window-maximized="1"/>
  <metadata id="metadata7">
    <rdf:RDF>
      <cc:Work rdf:about="">
        <dc:format>image/svg+xml</dc:format>
        <dc:type rdf:resource="http://purl.org/dc/dcmitype/StillImage"/>
        <dc:title/>
      </cc:Work>
    </rdf:RDF>
  </metadata>
  <g inkscape:label="Layer 1" inkscape:groupmode="layer" id="layer1" transform="translate(0,947.63782)">
    <g id="g4050" transform="translate(-175,0)">
      <path inkscape:connector-curvature="0" id="path2996" d="m 935.90605,-902.54608 c -51.30384,2.22161 -102.5863,13.92776 -153.89013,35.87226 l -5.40858,65.87367 c -21.90981,9.76127 -42.97119,20.90895 -63.14626,33.23731 l -53.2999,-33.97695 c -43.31961,27.57589 -81.92476,63.33017 -115.38292,107.98659 l 24.73151,52.28289 c -15.53453,19.16346 -29.86644,39.31395 -42.85255,60.32641 l -60.78868,-7.76616 c -27.43293,43.41028 -47.06079,92.20562 -58.29242,146.86361 l 46.31959,38.13739 c -4.93162,21.45119 -8.67757,43.26922 -11.18697,65.36517 l -59.1245,24.31547 c -2.05247,51.31089 3.75482,152.00689 25.05511,202.84467 28.08437,34.751056 65.77278,-52.86685 85.98246,-83.25507 l 27.55138,-44.56296 c -17.46356,-271.5713 182.40766,-506.29807 446.41544,-524.26194 264.00777,-17.96386 492.19057,187.64906 509.65417,459.22036 1.4974,23.28591 1.3517,46.62592 -0.3699,69.89543 l 45.164,71.09733 c 4.418,2.94146 40.2393,86.617906 68.3237,51.86685 21.3003,-50.83778 27.1077,-151.53378 25.0551,-202.84467 l -58.9859,-24.91642 c -2.6854,-21.99274 -6.3846,-43.58855 -11.2794,-64.94913 l 46.1348,-37.95248 c -11.2317,-54.65799 -30.8596,-103.45333 -58.2925,-146.86361 l -60.234,7.71993 c -13.5672,-21.9721 -28.4708,-42.83801 -44.6092,-62.49908 l 23.6683,-50.06399 c -33.4581,-44.65642 -72.017,-80.4107 -115.3367,-107.98659 l -52.0979,33.19109 c -20.7457,-12.60391 -42.3007,-23.81757 -64.4869,-33.60713 l -5.2699,-64.71799 c -51.3038,-21.9445 -102.6325,-33.65065 -153.9364,-35.87226 l -28.5221,54.87161 c -22.6569,-1.36351 -45.56467,-1.30448 -68.60103,0.23114 l -28.66082,-55.10275 z" style="fill:#000000;stroke:#000000;stroke-width:1.47926831px;stroke-linecap:butt;stroke-linejoin:miter;stroke-opacity:1"/>
      <g transform="matrix(1.4792683,0,0,1.4792683,-1329.5903,-860.38693)" id="g3945">
        <g id="g3916">
          <g id="g3799">
            <path style="fill:#000000;stroke:#000000;stroke-width:1px;stroke-linecap:butt;stroke-linejoin:miter;stroke-opacity:1" d="m 1554.6248,378.08536 c 3.8145,24.13413 38.2135,24.81565 42.4264,-1.51523 l 26.2639,-164.14979 c 22.6086,-141.304393 -117.6449,-144.066846 -94.9543,-0.50507 z" id="path3797" inkscape:connector-curvature="0" sodipodi:nodetypes="sssss"/>
            <path style="fill:#ffffff;stroke:#000000;stroke-width:1px;stroke-linecap:butt;stroke-linejoin:miter;stroke-opacity:1" d="m 1569.7771,373.53967 c 1.6031,10.13155 10.4925,10.12709 12.1218,0 l 25.7589,-160.10918 c 18.1641,-116.055773 -77.5946,-130.718738 -63.1346,0.50508 z" id="path3795" inkscape:connector-curvature="0" sodipodi:nodetypes="ssccs"/>
          </g>
          <g style="fill:none;stroke:#000000;stroke-opacity:1" transform="matrix(0.90164292,0.36608013,-0.37500167,0.87997718,342.45577,-519.57075)" id="g3803">
            <path sodipodi:nodetypes="sssss" inkscape:connector-curvature="0" id="path3805" d="m 1554.6248,378.08536 c 3.2043,24.21535 38.053,24.78583 42.4264,-1.51523 l 27.2271,-163.73876 c 24.1052,-144.964834 -110.991,-147.134686 -91.8654,-2.60183 z" style="fill:#000000;stroke:#000000;stroke-width:1px;stroke-linecap:butt;stroke-linejoin:miter;stroke-opacity:1"/>
            <path sodipodi:nodetypes="ssccs" inkscape:connector-curvature="0" id="path3807" d="m 1569.7771,373.53967 c 1.3927,10.1601 10.3908,10.10788 12.1218,0 l 27.3974,-159.97911 C 1630.8372,96.100018 1533.1522,80.615 1547.6122,211.83882 z" style="fill:#ffffff;stroke:#000000;stroke-width:1px;stroke-linecap:butt;stroke-linejoin:miter;stroke-opacity:1"/>
          </g>
          <g id="g3809" transform="matrix(-0.90164292,0.36608013,0.37500167,0.87997718,2810.9425,-519.57075)" style="fill:none;stroke:#000000;stroke-opacity:1">
            <path style="fill:#000000;stroke:#000000;stroke-width:1px;stroke-linecap:butt;stroke-linejoin:miter;stroke-opacity:1" d="m 1554.6248,378.08536 c 3.2043,24.21535 38.053,24.78583 42.4264,-1.51523 l 27.2271,-163.73876 c 24.1052,-144.964834 -110.991,-147.134686 -91.8654,-2.60183 z" id="path3811" inkscape:connector-curvature="0" sodipodi:nodetypes="sssss"/>
            <path style="fill:#ffffff;stroke:#000000;stroke-width:1px;stroke-linecap:butt;stroke-linejoin:miter;stroke-opacity:1" d="m 1569.7771,373.53967 c 1.3927,10.1601 10.3908,10.10788 12.1218,0 l 27.3974,-159.97911 C 1630.8372,96.100018 1533.1522,80.615 1547.6122,211.83882 z" id="path3813" inkscape:connector-curvature="0" sodipodi:nodetypes="ssccs"/>
          </g>
          <g style="fill:none;stroke:none" transform="matrix(-0.62570601,0.59699873,0.62166084,0.58036892,2249.7361,-740.43775)" id="g3815">
            <path sodipodi:nodetypes="sssss" inkscape:connector-curvature="0" id="path3817" d="m 1554.6248,378.08536 c 3.2043,24.21535 37.9131,29.47307 42.5871,3.24247 l 29.7476,-166.94685 C 1652.721,69.80451 1512.4902,59.673146 1532.4129,210.22954 z" style="fill:#000000;stroke:#000000;stroke-width:1px;stroke-linecap:butt;stroke-linejoin:miter;stroke-opacity:1"/>
            <path sodipodi:nodetypes="ssccs" inkscape:connector-curvature="0" id="path3819" d="m 1569.7771,373.53967 c 1.3927,10.1601 10.3908,10.10788 12.1218,0 l 27.3974,-159.97911 C 1630.8372,96.100018 1533.1522,80.615 1547.6122,211.83882 z" style="fill:#ffffff;stroke:#000000;stroke-width:1px;stroke-linecap:butt;stroke-linejoin:miter;stroke-opacity:1"/>
          </g>
          <g id="g3821" transform="matrix(-0.28680553,0.68334893,0.67513481,0.24789203,1679.9089,-715.69338)" style="fill:none;stroke:none">
            <path style="fill:#000000;stroke:#000000;stroke-width:1px;stroke-linecap:butt;stroke-linejoin:miter;stroke-opacity:1" d="m 1554.6248,378.08536 c 2.8028,24.24958 38.6523,24.91132 42.4264,-1.51523 l 23.6043,-165.27777 c 22.45,-157.195352 -102.3022,-147.023813 -85.4795,-1.47602 z" id="path3823" inkscape:connector-curvature="0" sodipodi:nodetypes="sssss"/>
            <path style="fill:#ffffff;stroke:#000000;stroke-width:1px;stroke-linecap:butt;stroke-linejoin:miter;stroke-opacity:1" d="m 1571.7264,369.60681 c 1.0404,10.18848 6.6286,11.59462 7.9542,1.40353 l 20.633,-158.62075 c 21.5409,-117.460545 -58.9641,-129.879274 -44.5041,1.34455 z" id="path3825" inkscape:connector-curvature="0" sodipodi:nodetypes="ssccs"/>
          </g>
          <g style="fill:none;stroke:none" transform="matrix(-0.03010058,0.64582653,0.62743071,6.8280856e-4,1290.6846,-527.89906)" id="g3829">
            <path sodipodi:nodetypes="sssss" inkscape:connector-curvature="0" id="path3831" d="m 1554.6248,378.08536 c 6.3986,23.67995 43.6271,24.72077 46.2978,-1.89872 5.7141,-56.95315 7.7564,-113.53887 17.5204,-164.43121 28.4061,-148.059455 -109.7875,-150.391039 -89.9093,4.00361 7.0005,54.3735 11.6616,108.92583 26.0911,162.32632 z" style="fill:#000000;stroke:#000000;stroke-width:1px;stroke-linecap:butt;stroke-linejoin:miter;stroke-opacity:1"/>
            <path sodipodi:nodetypes="ssccs" inkscape:connector-curvature="0" id="path3833" d="m 1572.8366,365.67557 c 2.3443,10.01628 7.98,7.17711 7.406,-3.17649 -2.894,-52.20395 6.6578,-95.27259 15.0906,-146.93313 21.5409,-117.460546 -57.8653,-122.995987 -43.9523,2.50945 4.4886,53.1778 11.0706,103.22907 21.4557,147.60017 z" style="fill:#ffffff;stroke:#000000;stroke-width:1px;stroke-linecap:butt;stroke-linejoin:miter;stroke-opacity:1"/>
          </g>
          <g id="g3857" transform="matrix(0.62570601,0.59699873,-0.62166084,0.58036892,899.91604,-740.43775)" style="fill:none;stroke:none">
            <path style="fill:#000000;stroke:#000000;stroke-width:1px;stroke-linecap:butt;stroke-linejoin:miter;stroke-opacity:1" d="m 1554.6248,378.08536 c 3.2043,24.21535 37.9131,29.47307 42.5871,3.24247 l 29.7476,-166.94685 C 1652.721,69.80451 1512.4902,59.673146 1532.4129,210.22954 z" id="path3859" inkscape:connector-curvature="0" sodipodi:nodetypes="sssss"/>
            <path style="fill:#ffffff;stroke:#000000;stroke-width:1px;stroke-linecap:butt;stroke-linejoin:miter;stroke-opacity:1" d="m 1569.7771,373.53967 c 1.3927,10.1601 10.3908,10.10788 12.1218,0 l 27.3974,-159.97911 C 1630.8372,96.100018 1533.1522,80.615 1547.6122,211.83882 z" id="path3861" inkscape:connector-curvature="0" sodipodi:nodetypes="ssccs"/>
          </g>
          <g style="fill:none;stroke:none" transform="matrix(0.28680553,0.68334893,-0.67513481,0.24789203,1469.7432,-715.69338)" id="g3863">
            <path sodipodi:nodetypes="sssss" inkscape:connector-curvature="0" id="path3865" d="m 1554.6248,378.08536 c 2.8028,24.24958 38.6523,24.91132 42.4264,-1.51523 l 23.6043,-165.27777 c 22.45,-157.195352 -102.3022,-147.023813 -85.4795,-1.47602 z" style="fill:#000000;stroke:#000000;stroke-width:1px;stroke-linecap:butt;stroke-linejoin:miter;stroke-opacity:1"/>
            <path sodipodi:nodetypes="ssccs" inkscape:connector-curvature="0" id="path3867" d="m 1571.7264,369.60681 c 1.0404,10.18848 6.6286,11.59462 7.9542,1.40353 l 20.633,-158.62075 c 21.5409,-117.460545 -58.9641,-129.879274 -44.5041,1.34455 z" style="fill:#ffffff;stroke:#000000;stroke-width:1px;stroke-linecap:butt;stroke-linejoin:miter;stroke-opacity:1"/>
          </g>
          <g id="g3869" transform="matrix(0.03010058,0.64582653,-0.62743071,6.8280856e-4,1858.9675,-527.89906)" style="fill:none;stroke:none">
            <path style="fill:#000000;stroke:#000000;stroke-width:1px;stroke-linecap:butt;stroke-linejoin:miter;stroke-opacity:1" d="m 1554.6248,378.08536 c 6.3986,23.67995 43.6271,24.72077 46.2978,-1.89872 5.7141,-56.95315 7.7564,-113.53887 17.5204,-164.43121 28.4061,-148.059455 -109.7875,-150.391039 -89.9093,4.00361 7.0005,54.3735 11.6616,108.92583 26.0911,162.32632 z" id="path3871" inkscape:connector-curvature="0" sodipodi:nodetypes="sssss"/>
            <path style="fill:#ffffff;stroke:#000000;stroke-width:1px;stroke-linecap:butt;stroke-linejoin:miter;stroke-opacity:1" d="m 1572.8366,365.67557 c 2.3443,10.01628 7.98,7.17711 7.406,-3.17649 -2.894,-52.20395 6.6578,-95.27259 15.0906,-146.93313 21.5409,-117.460546 -57.8653,-122.995987 -43.9523,2.50945 4.4886,53.1778 11.0706,103.22907 21.4557,147.60017 z" id="path3873" inkscape:connector-curvature="0" sodipodi:nodetypes="ssccs"/>
          </g>
        </g>
        <path style="fill:#000000;stroke:#000000;stroke-width:3.42284346;stroke-linecap:round;stroke-linejoin:bevel;stroke-miterlimit:4;stroke-opacity:1;stroke-dashoffset:0" d="m 1574.8885,408.59375 c -39.472,-0.0616 -72.0045,36.93938 -73.0625,83.625 28.9771,9.15102 49.5379,36.07081 66.4375,70.71875 l 14.6562,0 c 11.8319,-35.60601 35.622,-56.46771 64.9063,-70.59375 -0.9796,-45.69813 -32.2173,-82.50042 -71.0625,-83.71875 -0.6299,-0.0198 -1.2485,-0.0303 -1.875,-0.0312 z m -0.125,12.84375 c 0.5303,-6e-4 1.06,0.0145 1.5938,0.0312 32.9106,1.0322 57.4989,31.13602 58.5937,62.4375 -24.8104,11.96793 -45.5146,34.96232 -59.625,61.15625 -18.4039,-33.32701 -30.3039,-45.31053 -60.625,-61.25 0.1318,-28.20346 26.6536,-62.33739 60.0625,-62.375 z" id="path3875" inkscape:connector-curvature="0"/>
        <g id="g3908" transform="translate(-821.914,0)">
          <g id="g3896">
            <path style="fill:#ffffff;stroke:#000000;stroke-width:25;stroke-linecap:butt;stroke-linejoin:miter;stroke-miterlimit:4;stroke-opacity:1;stroke-dasharray:none" d="m 2189.2857,541.6479 c -42.0625,17.78373 -22.3156,42.20315 1.0714,27.85714 116.5163,-42.31788 174.502,15.74493 168.2143,65.71428 -2.3572,23.25513 -16.2075,32.45628 -5.7143,40.71429 26.4092,7.91422 65.0764,-103.93385 -32.8571,-136.42857 -52.7573,-14.08511 -95.0809,-11.36049 -130.7143,2.14286 z" id="path3898" inkscape:connector-curvature="0" sodipodi:nodetypes="cccccc"/>
            <path sodipodi:nodetypes="cccccc" inkscape:connector-curvature="0" id="path3900" d="m 2189.2857,541.6479 c -42.0625,17.78373 -22.3156,42.20315 1.0714,27.85714 116.5163,-42.31788 174.502,15.74493 168.2143,65.71428 -2.3572,23.25513 -16.2075,32.45628 -5.7143,40.71429 26.4092,7.91422 65.0764,-103.93385 -32.8571,-136.42857 -52.7573,-14.08511 -95.0809,-11.36049 -130.7143,2.14286 z" style="fill:#ffffff;stroke:none"/>
          </g>
          <g transform="matrix(-1,0,0,1,4793.4801,0)" id="g3902">
            <path sodipodi:nodetypes="cccccc" inkscape:connector-curvature="0" id="path3904" d="m 2189.2857,541.6479 c -42.0625,17.78373 -22.3156,42.20315 1.0714,27.85714 116.5163,-42.31788 174.502,15.74493 168.2143,65.71428 -2.3572,23.25513 -16.2075,32.45628 -5.7143,40.71429 26.4092,7.91422 65.0764,-103.93385 -32.8571,-136.42857 -52.7573,-14.08511 -95.0809,-11.36049 -130.7143,2.14286 z" style="fill:#ffffff;stroke:#000000;stroke-width:25;stroke-linecap:butt;stroke-linejoin:miter;stroke-miterlimit:4;stroke-opacity:1;stroke-dasharray:none"/>
            <path style="fill:#ffffff;stroke:none" d="m 2189.2857,541.6479 c -42.0625,17.78373 -22.3156,42.20315 1.0714,27.85714 116.5163,-42.31788 174.502,15.74493 168.2143,65.71428 -2.3572,23.25513 -16.2075,32.45628 -5.7143,40.71429 26.4092,7.91422 65.0764,-103.93385 -32.8571,-136.42857 -52.7573,-14.08511 -95.0809,-11.36049 -130.7143,2.14286 z" id="path3906" inkscape:connector-curvature="0" sodipodi:nodetypes="cccccc"/>
          </g>
        </g>
      </g>
      <path inkscape:connector-curvature="0" id="path3985" d="m 520.18554,-147.7362 c -3.23649,0.26473 -7.87976,3.13655 -14.56162,10.26242 -27.80802,29.65581 -20.96256,66.374486 -53.80838,94.858076 -19.63995,7.29142 -39.29144,13.46958 -56.35095,24.96265 -56.12048,22.08143 -95.96753,76.84659 -95.96753,140.669184 0,83.24634 67.82415,151.07027 151.07027,151.07027 20.98742,0 40.98387,-4.28325 59.17073,-12.06528 -3.14507,8.22695 -5.73941,16.68255 -7.67355,25.33247 -21.64258,96.7847 38.29796,193.4277 133.55012,215.4185 72.08712,16.6426 144.06831,-14.1512 184.21506,-72.0682 17.61469,94.6318 104.53087,159.5703 196.78891,145.6618 83.2064,-12.544 143.4373,-85.097 146.4476,-169.3763 1.6087,2.9969 3.2791,5.9648 5.0388,8.8756 53.847,89.0714 164.9482,117.8478 247.5926,64.1633 70.9824,-46.1092 98.2707,-138.3199 70.4501,-219.85625 19.2648,8.93432 40.7048,13.91436 63.2849,13.91436 83.2463,0 151.0703,-67.82393 151.0703,-151.07027 0,-63.822594 -39.8469,-118.587754 -95.9675,-140.669184 -17.0596,-11.49307 -36.7108,-17.67123 -56.351,-24.96265 -32.8455,-28.48359 -26.0002,-65.202266 -53.8084,-94.858076 -6.6817,-7.12587 -11.3251,-9.99769 -14.5615,-10.26242 -8.2704,-0.67655 -7.3651,15.57137 -7.8586,20.70975 -4.1101,42.786906 -4.3251,83.818876 -19.4615,104.843146 -22.1328,30.74117 -32.8453,53.05666 -42.7139,87.50796 -0.031,0.0765 -0.061,0.15463 -0.093,0.23114 -7.3179,17.71788 -11.3256,37.144874 -11.3256,57.460334 0,40.19212 15.8354,76.76787 41.5583,103.87237 a 15.654369,14.691444 0.02231256 0 0 3.2357,10.30865 c 45.1307,74.65301 25.6742,171.16384 -43.5921,216.15804 -69.2663,44.9944 -161.5972,21.0757 -206.7277,-53.5772 -2.8028,-4.6361 -5.3829,-9.3938 -7.7199,-14.2842 7.8909,2.1273 15.6067,-1.8649 12.5738,-19.4616 -24.9905,-144.99053 141.2605,-204.09672 213.4306,-116.21503 5.199,6.33091 35.1175,27.63104 22.189,-10.58602 -13.5956,-40.18882 -43.5629,-72.44438 -75.7663,-97.77039 8.4198,-31.78406 11.9445,-61.400064 6.0097,-93.471264 -5.7807,-31.23751 -18.7076,-14.72551 -22.1891,-6.33312 C 1267.0486,220.79696 1145.5876,172.78047 1157.4726,346.4781 a 15.654369,14.691444 0.02231256 0 0 -6.333,2.12645 c -72.0097,-156.22098 -192.51918,-67.1909 -333.43621,-199.10027 -6.3289,-5.92419 -24.29579,-17.59 -16.4107,12.94359 8.09559,31.34849 44.21725,70.54569 64.11711,95.2279 -16.45864,37.04143 -16.07891,68.17256 -11.04836,110.20552 4.78336,39.9706 20.20873,9.0412 22.18902,1.1094 27.94279,-111.92031 201.63224,-105.77515 236.59044,22.9749 2.7457,10.1123 11.7162,16.4227 21.0796,18.9069 -4.6776,68.2325 -53.9997,125.8421 -121.9934,136.0927 -79.10246,11.9253 -152.92224,-44.793 -165.262,-127.0784 -3.09315,-20.6263 -2.01477,-41.6309 3.14344,-61.71323 A 14.869298,14.295667 0.02498354 0 0 839.84612,339.72894 C 848.14688,173.98831 728.87777,218.44313 655.5386,41.656366 c -3.4816,-8.39239 -16.40849,-24.90439 -22.18902,6.33312 -5.93498,32.0712 -2.36402,61.687204 6.05568,93.471264 -32.20338,25.32601 -62.17069,57.58157 -75.7662,97.77039 -12.92866,38.21706 16.98998,16.91693 22.18902,10.58602 72.1701,-87.88169 238.42093,-28.7755 213.43061,116.21503 -2.95202,17.127 4.26399,21.3482 11.9266,19.6003 -27.26986,66.1063 -97.86706,104.6003 -169.09886,88.1551 -79.8336,-18.4309 -129.63909,-98.7521 -111.49986,-179.86974 4.54698,-20.33352 13.2004,-39.41748 25.42494,-56.16597 a 14.63025,14.865611 0 0 0 3.00483,-9.75393 c 26.3508,-27.21133 42.62127,-64.23755 42.62127,-104.98182 0,-20.31546 -4.00763,-39.742454 -11.32557,-57.460334 -0.0317,-0.0765 -0.0608,-0.1547 -0.0924,-0.23114 -9.86894,-34.4513 -20.58121,-56.76679 -42.71388,-87.50796 -15.13676,-21.02427 -15.35141,-62.05624 -19.4617,-104.843146 -0.49319,-5.13838 0.41183,-21.3863 -7.85847,-20.70975 z M 447.51649,6.061476 c 1.00605,-0.0253 2.03843,0 3.05084,0 64.80763,0 116.95466,52.14737 116.95481,116.954654 0,64.80727 -52.14747,116.95465 -116.95481,116.95465 -64.80719,0 -116.9545,-52.14738 -116.9545,-116.95465 0,-63.794664 50.50769,-115.359754 113.90366,-116.954654 z m 1101.91611,0 c 1.0126,0 2.0448,-0.0253 3.051,0 63.396,1.5949 113.9037,53.15999 113.9037,116.954654 0,64.80727 -52.1475,116.95465 -116.9547,116.95465 -64.8073,0 -116.9547,-52.14738 -116.9547,-116.95465 2e-4,-64.807284 52.1474,-116.954654 116.9547,-116.954654 z M 1184.3307,142.29284 c -4.2127,0.36347 -9.7459,4.43446 -12.7124,7.21144 -53.2732,49.86767 -103.6225,68.1207 -149.5449,80.01917 49.7511,13.45842 94.5229,45.27213 113.9962,68.87843 -2.0574,-13.3503 -5.8773,-26.59103 -12.1577,-40.72611 19.8997,-24.68221 56.0214,-63.87941 64.117,-95.2279 4.1889,-16.22097 1.0761,-20.56696 -3.6982,-20.15503 z" style="font-size:medium;font-style:normal;font-variant:normal;font-weight:normal;font-stretch:normal;text-indent:0;text-align:start;text-decoration:none;line-height:normal;letter-spacing:normal;word-spacing:normal;text-transform:none;direction:ltr;block-progression:tb;writing-mode:lr-tb;text-anchor:start;baseline-shift:baseline;color:#000000;fill:#000000;fill-opacity:1;fill-rule:nonzero;stroke:none;stroke-width:20;marker:none;visibility:visible;display:inline;overflow:visible;enable-background:accumulate;font-family:Sans;-inkscape-font-specification:Sans"/>
      <g id="text4029" style="font-size:86.21695709px;font-style:normal;font-variant:normal;font-weight:bold;font-stretch:normal;line-height:125%;letter-spacing:0px;word-spacing:0px;fill:#000000;fill-opacity:1;stroke:none;font-family:B Titr;-inkscape-font-specification:B Titr Bold" transform="matrix(1.5362428,0,0,1.4244069,-3171.0191,22.947586)">
        <path inkscape:connector-curvature="0" id="path4034" d="m 2553.1952,35.226216 c -1e-4,5.304381 -0.2807,10.314052 -0.842,15.02903 -1.0385,8.672212 -2.7504,13.008315 -5.136,13.00832 -1.3191,-5e-6 -2.1751,-0.575346 -2.568,-1.726023 -0.2806,-0.8139 -0.6595,-3.438014 -1.1366,-7.872349 -0.8139,-7.493455 -1.5156,-13.078467 -2.1049,-16.755053 -1.0104,-6.20243 -2.3014,-11.675181 -3.873,-16.418268 -0.842,-2.525848 -1.9225,-5.135929 -3.2416,-7.830251 -0.9542,-1.964533 -1.4313,-3.2134423 -1.4313,-3.7467332 0,-0.5612592 1.3752,-3.5642557 4.1256,-9.00899847 2.8346,-5.61301993 4.5466,-8.41955873 5.1359,-8.41962473 0.9823,6.6e-5 2.2874,1.5857604 3.9152,4.757088 1.9365,3.78888853 3.5362,8.6161352 4.7992,14.4817544 1.5716,7.353178 2.3574,15.520206 2.3575,24.501108 z"/>
        <path inkscape:connector-curvature="0" id="path4036" d="m 2613.9427,-2.7462915 c 0,6.5112302 -1.1226,11.9699481 -3.3678,16.3761705 -2.4979,4.911486 -5.9218,7.367208 -10.2719,7.367171 -2.4698,3.7e-5 -4.5888,-0.785794 -6.3569,-2.357495 -0.9262,1.094589 -2.8486,2.259303 -5.7674,3.494145 0.6735,6.006028 1.0103,10.735046 1.0104,14.187067 -1e-4,5.164053 -0.5474,10.524542 -1.6419,16.081483 -1.4313,7.268941 -3.3117,10.903409 -5.6411,10.903414 -1.9646,-5e-6 -3.3258,-2.441694 -4.0835,-7.325073 -0.1404,-0.870026 -0.3789,-4.041414 -0.7157,-9.514176 -0.3649,-5.83759 -0.842,-10.159659 -1.4313,-12.966222 -1.0946,-5.192073 -2.568,-9.794796 -4.4203,-13.808185 -1.1507,-2.469716 -2.568,-4.883339 -4.252,-7.240877 -1.291,-1.79614 -1.9365,-2.8766571 -1.9365,-3.2415554 0,-0.6173902 1.1086,-3.1994059 3.3258,-7.7460547 l 4.5045,-9.2615872 c 0.5051,-1.0664195 1.0103,-1.5996618 1.5155,-1.5997287 0.5613,6.69e-5 1.1507,0.6175054 1.7681,1.8523175 2.7785,5.5008809 5.8236,8.25128893 9.1353,8.25123218 2.2733,5.675e-5 3.8871,-0.7857741 4.8413,-2.35749488 0.1403,-0.224464 0.6455,-1.6838642 1.5155,-4.3782049 0.5052,-1.5715982 1.3612,-2.3574291 2.568,-2.3574949 1.1787,6.58e-5 2.0207,0.8139621 2.5259,2.4416912 0.1684,0.5052403 0.6174,2.0067386 1.3472,4.5044992 0.7577,1.62785136 2.0066,2.4417476 3.7467,2.4416911 1.9084,5.65e-5 3.3538,-0.82787243 4.3361,-2.4837892 0.1683,-0.3928565 0.7577,-1.9083875 1.7681,-4.5465974 0.6455,-1.6557944 1.5015,-2.4837233 2.568,-2.4837893 2.2732,6.6e-5 3.4099,1.922545 3.4099,5.7674429 z"/>
        <path inkscape:connector-curvature="0" id="path4038" d="m 2843.4929,-1.6972327 c 0,6.5112302 -1.1226,11.9699477 -3.3678,16.3761707 -2.4979,4.911486 -5.9219,7.367208 -10.272,7.367171 -2.4698,3.7e-5 -4.5887,-0.785794 -6.3568,-2.357495 -0.9262,1.094589 -2.8486,2.259303 -5.7674,3.494145 0.6735,6.006028 1.0103,10.735046 1.0103,14.187067 0,5.164053 -0.5473,10.524542 -1.6418,16.081483 -1.4314,7.268941 -3.3117,10.903409 -5.6411,10.903414 -1.9646,-5e-6 -3.3258,-2.441694 -4.0836,-7.325073 -0.1403,-0.870026 -0.3789,-4.041414 -0.7156,-9.514176 -0.3649,-5.83759 -0.842,-10.159659 -1.4314,-12.966222 -1.0945,-5.192073 -2.568,-9.794796 -4.4203,-13.808185 -1.1507,-2.469716 -2.568,-4.883339 -4.2519,-7.240877 -1.291,-1.79614 -1.9365,-2.876657 -1.9365,-3.241556 0,-0.6173898 1.1086,-3.1994055 3.3258,-7.7460543 l 4.5045,-9.2615872 c 0.5051,-1.0664195 1.0103,-1.5996618 1.5155,-1.5997287 0.5613,6.69e-5 1.1507,0.6175054 1.7681,1.8523175 2.7785,5.50088093 5.8236,8.251289 9.1353,8.2512322 2.2733,5.68e-5 3.887,-0.78577409 4.8413,-2.35749487 0.1403,-0.224464 0.6455,-1.68386423 1.5155,-4.37820493 0.5052,-1.5715982 1.3612,-2.3574291 2.568,-2.3574949 1.1787,6.58e-5 2.0207,0.8139621 2.5259,2.4416912 0.1684,0.5052403 0.6174,2.0067386 1.3471,4.50449923 0.7578,1.62785137 2.0067,2.44174757 3.7468,2.44169107 1.9084,5.65e-5 3.3537,-0.8278724 4.3361,-2.48378917 0.1683,-0.3928565 0.7577,-1.90838753 1.7681,-4.54659743 0.6455,-1.6557944 1.5014,-2.4837233 2.568,-2.4837893 2.2732,6.6e-5 3.4099,1.922545 3.4099,5.7674429 z"/>
        <path inkscape:connector-curvature="0" id="path4040" d="m 2897.2943,13.2897 c 0,0.280699 -0.6736,1.178791 -2.0207,2.694279 -1.9365,2.189143 -3.6766,4.476472 -5.2201,6.861995 -5.2483,8.138998 -9.1494,17.667197 -11.7033,28.584626 -0.393,1.796191 -1.1507,5.023711 -2.2733,9.682568 -0.5894,2.301359 -1.5857,3.45204 -2.989,3.452046 -1.263,-6e-6 -2.2873,-1.178752 -3.0732,-3.536242 -0.1684,-0.50518 -0.9402,-3.78883 -2.3153,-9.850961 -2.8627,-12.657483 -7.1848,-23.68718 -12.9663,-33.089125 l -3.9572,-6.441013 c 0,-0.645457 1.6839,-6.5391889 5.0518,-17.6812124 0.449,-1.4593356 0.9402,-2.1890357 1.4734,-2.1891024 0.4771,6.67e-5 1.0665,0.4491129 1.7681,1.3471399 3.6485,4.7150506 6.848,10.4263569 9.5984,17.1339359 2.3575,5.753453 3.9993,11.170073 4.9255,16.249876 3.3397,-13.808138 9.2615,-25.062359 17.7654,-33.762695 0.4771,-0.4770458 0.87,-0.7156016 1.1787,-0.7156681 0.5894,6.65e-5 1.0525,0.8841262 1.3893,2.6521818 2.2452,11.7875267 3.3678,17.9899773 3.3678,18.6073713 z"/>
      </g>
      <g style="font-size:184.47328186px;font-style:normal;font-variant:normal;font-weight:bold;font-stretch:normal;line-height:125%;letter-spacing:0px;word-spacing:0px;fill:#000000;fill-opacity:1;stroke:none;font-family:B Titr;-inkscape-font-specification:B Titr Bold" id="text4042">
        <path d="m 1766.582,683.14912 c -1e-4,29.36441 -13.7215,44.0466 -41.1642,44.0466 -23.2994,0 -34.9491,-10.1184 -34.9491,-30.35522 0,-7.9866 1.5613,-15.43278 4.6839,-22.33857 1.261,-2.76224 2.9424,-4.14338 5.0442,-4.14344 2.2218,6e-5 3.8131,1.71148 4.774,5.13427 1.5012,5.58468 3.6029,9.0976 6.3052,10.53875 3.0025,1.62139 9.2777,2.43206 18.8256,2.43202 11.8298,4e-5 17.7447,-1.44115 17.7448,-4.32359 -10e-5,-1.20095 -0.9008,-2.73222 -2.7023,-4.59381 -6.4854,-6.72554 -17.7748,-14.32184 -33.8681,-22.78894 l 14.1418,-30.085 c 0.8406,-1.74134 1.6513,-2.61207 2.432,-2.61217 0.4803,10e-5 1.261,0.27033 2.3419,0.81067 6.5454,3.30285 13.1509,8.76738 19.8165,16.39363 11.0491,12.61055 16.5737,26.57213 16.5738,41.8848 z" style="" id="path4101"/>
        <path d="m 1679.4796,680.44687 c 0,5.28444 -0.8107,11.97999 -2.432,20.08669 -1.6815,8.52711 -3.543,14.98246 -5.5847,19.3661 -2.5221,5.28439 -4.8941,7.92658 -7.1159,7.92658 -2.402,0 -4.4737,-3.21266 -6.2151,-9.63801 -2.4621,-9.06751 -7.6864,-40.32345 -15.6731,-93.76791 l 27.2026,-29.63462 c 1.6814,-1.86142 2.8223,-2.79219 3.4229,-2.79232 0.4803,1.3e-4 0.9007,0.84083 1.261,2.52209 2.6422,11.95005 4.2635,26.21189 4.8641,42.78555 0.1801,5.04428 0.2702,19.42622 0.2702,43.14585 z" style="" id="path4103"/>
        <path d="m 1631.2895,680.08657 c 0,16.69391 -2.372,28.46367 -7.1159,35.30934 -5.5246,7.98664 -15.7331,11.97996 -30.6255,11.97996 l -7.0258,0 0,-40.89398 20.3569,0 c 3.5429,4e-5 5.3144,-0.99078 5.3144,-2.97247 0,-1.02081 -0.5104,-2.19178 -1.5312,-3.51292 -3.7231,-4.80394 -8.5271,-9.8181 -14.412,-15.0425 -0.9008,-0.84064 -0.9008,-1.92153 0,-3.24269 l 16.7539,-24.32021 c 0.9007,-1.32101 1.5613,-1.98156 1.9817,-1.98165 0.5404,9e-5 1.291,0.60059 2.2518,1.8015 9.3678,11.52966 14.0517,25.82152 14.0517,42.87562 z m -10.3586,-73.68122 c 0.9007,0.84082 0.9007,1.71154 0,2.61217 l -12.1601,11.97996 c -0.8407,0.8408 -1.7114,0.8408 -2.6122,0 l -12.2502,-11.79981 c -1.0208,-0.96068 -0.9307,-2.04157 0.2703,-3.24269 l 11.2593,-11.43951 c 0.9608,-1.02071 1.9817,-1.02071 3.0626,0 z" style="" id="path4105"/>
        <path d="m 1591.8367,727.28579 -6.9358,0 c -5.945,0 -11.6197,-3.90324 -17.0241,-11.70973 -5.7649,7.80649 -11.0192,11.70973 -15.7631,11.70973 -3.1227,0 -6.2152,-1.29107 -9.2777,-3.87322 -2.7624,-2.28189 -4.8641,-5.01415 -6.3053,-8.19681 -5.4646,8.04669 -10.4787,12.07003 -15.0425,12.07003 -6.8457,0 -12.1901,-4.02334 -16.0333,-12.07003 -5.4045,8.22684 -11.2594,12.34026 -17.5646,12.34026 l -7.0258,0 0,-40.62376 6.8457,0 c 4.5037,4e-5 7.6563,-1.83148 9.4578,-5.49456 0.9008,-3.1826 1.7715,-6.36524 2.6122,-9.54794 1.5613,-4.08333 3.633,-6.12502 6.2152,-6.12509 3.0024,7e-5 4.9841,1.83159 5.9449,5.49457 0.3603,1.3812 1.201,4.77402 2.5221,10.17846 1.4412,3.66308 4.2035,5.4946 8.2869,5.49456 3.4828,4e-5 5.8848,-1.80145 7.206,-5.40449 0.4203,-1.8615 1.261,-5.19426 2.5221,-9.99831 0.9607,-3.60293 2.9424,-5.40443 5.9449,-5.40449 2.9424,6e-5 4.834,1.77153 5.6747,5.31442 0.4203,1.8616 1.1409,5.16434 2.1618,9.90823 1.261,3.54299 3.633,5.31446 7.1159,5.31442 3.5429,4e-5 5.9449,-1.74141 7.206,-5.22434 0.6004,-3.1826 1.321,-6.48534 2.1618,-9.90824 0.8406,-3.42278 2.8823,-5.1342 6.1251,-5.13426 2.7022,6e-5 4.5637,1.7415 5.5846,5.22434 0.3002,1.2611 1.1409,4.53382 2.5221,9.81816 1.5012,3.48293 4.1734,5.22438 8.0167,5.22434 l 6.8457,0 z m -77.9148,-96.65031 c -0.7206,-0.54035 -0.6906,-1.2009 0.09,-1.98164 l 10.6289,-10.53876 c 0.7205,-0.72049 1.4411,-0.72049 2.1618,0 l 10.4486,10.17846 10.4487,-10.17846 c 0.7205,-0.66044 1.4111,-0.66044 2.0717,0 l 10.7189,10.44868 c 0.8407,0.78075 0.8106,1.62145 -0.09,2.5221 l -9.9983,10.08838 c -0.8408,0.84079 -1.6815,0.84079 -2.5221,0 l -10.6289,-10.08838 -0.09,0.0901 -9.7281,9.99831 c -0.8408,0.84079 -1.7115,0.84079 -2.6122,0 z m 11.4396,-20.44699 c -0.7207,-0.66043 -0.7207,-1.351 0,-2.07172 l 10.7189,-10.62883 c 0.7205,-0.72047 1.4411,-0.72047 2.1618,0 l 10.8089,10.53876 c 0.7206,0.72072 0.6005,1.59144 -0.3603,2.61217 l -9.728,9.99831 c -0.8408,0.90085 -1.7415,0.90085 -2.7023,0 z" style="" id="path4107"/>
        <path d="m 1477.7119,596.13682 -0.9007,8.37696 -69.2676,22.42864 1.7115,-9.72809 z m 8.7373,131.23905 -7.0258,0 c -5.7048,0 -11.9801,-2.22185 -18.8257,-6.66554 -5.8849,-3.84318 -10.9291,-8.37695 -15.1325,-13.6013 -6.6656,13.51123 -18.8557,20.26684 -36.5704,20.26684 l -13.4212,0 0,-40.89398 9.5479,0 c 8.347,4e-5 14.2018,-0.57043 17.5646,-1.71142 1.5613,-0.54041 2.342,-1.23098 2.342,-2.07173 0,-0.72055 -0.4804,-1.65132 -1.4412,-2.79232 -5.1643,-6.18508 -12.1601,-13.99156 -20.9874,-23.41946 l 4.1434,-22.60878 c 0,-0.36021 0.2702,-0.81058 0.8107,-1.35112 l 67.466,-21.61797 c 0.7205,-0.24008 1.1409,-0.33015 1.2611,-0.27022 0.12,0.30036 0.15,0.99094 0.09,2.07172 l -1.8014,24.59043 c -0.06,1.20109 -0.1803,1.92169 -0.3603,2.1618 -0.2403,0.48049 -0.8408,0.87081 -1.8015,1.17097 l -37.7414,11.52958 22.6088,26.66216 c 5.4645,5.10428 12.0699,7.6564 19.8164,7.65636 l 9.4579,0 z" style="" id="path4109"/>
        <path d="m 1400.788,727.28579 -9.728,0 c -22.5188,0 -33.7781,-11.76977 -33.7781,-35.30934 0,-10.02828 -0.3603,-23.20922 -1.0809,-39.54285 -0.7807,-17.23423 -1.5913,-28.6437 -2.432,-34.22844 -0.4204,-2.76219 0.06,-4.74383 1.4412,-5.94494 l 26.2118,-18.46535 c 1.8014,-1.26091 3.0324,-1.89143 3.693,-1.89157 0.7806,1.4e-4 1.171,0.72073 1.171,2.1618 l 0,79.35594 c 0,8.76733 3.8732,13.15096 11.6197,13.15092 l 2.8823,0 z" style="" id="path4111"/>
        <path d="m 1342.6898,683.86972 c -1e-4,12.37031 -2.9125,22.45868 -8.7373,30.26515 -6.5455,8.70723 -15.7932,13.06085 -27.743,13.06085 -21.2577,0 -31.8866,-9.8782 -31.8865,-29.63463 -1e-4,-7.20595 2.2218,-17.68464 6.6655,-31.43612 5.2243,-16.21339 10.5688,-24.32012 16.0333,-24.3202 9.5479,8e-5 18.9757,3.30282 28.2835,9.90823 11.5896,8.2269 17.3844,18.9458 17.3845,32.15672 z m -18.1051,2.43202 c 0,-2.40195 -3.3929,-5.07417 -10.1784,-8.01666 -6.1852,-2.7022 -10.8391,-4.05332 -13.9616,-4.05337 -1.8016,5e-5 -3.3028,1.23107 -4.5038,3.69307 -0.9608,2.04174 -1.4412,4.11346 -1.4412,6.21516 0,5.16433 5.4345,7.74647 16.3036,7.74644 9.1876,3e-5 13.7814,-1.86151 13.7814,-5.58464 z" style="" id="path4113"/>
        <path d="m 1228.0245,668.37684 c -10e-5,12.97083 -4.5339,25.28104 -13.6013,36.93069 -11.2294,14.41198 -26.2419,21.61796 -45.0374,21.61796 -5.6448,0 -11.4996,-0.93077 -17.5646,-2.79232 -6.9058,-2.10174 -11.8599,-4.86403 -14.8624,-8.28688 -4.8641,7.68639 -10.5087,11.52958 -16.9341,11.52958 l -7.7464,0 0,-40.89398 6.6655,0 c 3.8432,4e-5 6.7256,-1.80146 8.6472,-5.40449 0.4204,-0.7806 1.5913,-4.17342 3.5129,-10.17846 1.141,-3.60293 2.7023,-5.40443 4.6839,-5.40449 2.342,6e-5 4.4887,3.36285 6.4404,10.08838 1.9516,6.72564 4.3386,10.08843 7.1609,10.08838 0.4804,5e-5 3.6931,-3.60294 9.638,-10.80898 7.0859,-8.58707 13.6313,-15.2526 19.6364,-19.99661 9.1275,-7.20591 17.6545,-10.8089 25.5812,-10.80898 7.5662,8e-5 13.5712,2.73235 18.015,8.19681 3.8431,4.74401 5.7647,10.11847 5.7648,16.12339 z m -23.3294,13.33108 c -10e-5,-6.90568 -4.1135,-10.35855 -12.3403,-10.35861 -8.0467,6e-5 -18.4053,6.24524 -31.0758,18.73557 2.7623,0.12014 5.4645,0.18019 8.1068,0.18015 10.8689,4e-5 19.7263,-1.02081 26.572,-3.06254 5.8248,-1.74141 8.7372,-3.57293 8.7373,-5.49457 z" style="" id="path4115"/>
        <path d="m 1117.7729,727.37587 -6.9358,0 c -8.6472,0 -15.3428,-3.99332 -20.0867,-11.97996 -4.6839,7.98664 -11.7998,11.97996 -21.3477,11.97996 l -8.8274,0 0,-40.89398 5.6747,0 c 6.4254,4e-5 10.8991,-1.92156 13.4212,-5.76479 0.6005,-0.9007 1.8015,-4.41362 3.603,-10.53876 1.1409,-3.84313 3.2126,-5.76473 6.2152,-5.76479 2.8823,6e-5 4.7439,1.92166 5.5846,5.76479 1.3211,5.88494 2.3119,9.39786 2.9725,10.53876 2.2818,3.84323 6.5454,5.76483 12.7906,5.76479 l 6.9358,0 z m -16.3036,-99.26248 c 0.7806,0.78075 0.7206,1.62144 -0.1801,2.52209 l -11.98,12.07003 c -0.9008,0.90084 -1.8015,0.90084 -2.7022,0 l -12.2502,-11.97995 c -0.9008,-0.90065 -0.7807,-1.9215 0.3603,-3.06255 l 11.2593,-11.52958 c 0.9608,-0.96068 1.9516,-0.96068 2.9725,0 z" style="" id="path4117"/>
        <path d="m 1065.7997,727.37587 -8.377,0 c -16.5138,0 -26.6922,-4.77396 -30.5354,-14.3219 -3.1827,5.4045 -6.9358,9.18764 -11.2593,11.34943 -4.0234,1.98165 -9.3078,2.97247 -15.8532,2.97247 l -13.24101,0 0,-40.89398 11.97996,0 c 8.70725,4e-5 13.78145,-0.69053 15.22265,-2.07172 -4.2035,-5.5846 -8.0467,-9.57791 -11.5296,-11.97996 -0.4203,-0.24014 -0.9908,-0.54039 -1.7114,-0.90075 l -3.78315,-1.98164 c -0.9608,-0.48034 -1.4412,-1.92154 -1.4412,-4.3236 0,-5.58457 2.85236,-10.83893 8.55715,-15.76309 6.4853,-5.58456 14.562,-8.37688 24.2301,-8.37696 6.9657,8e-5 13.1809,1.7115 18.6455,5.13426 6.2451,3.90332 9.3677,9.18771 9.3678,15.85318 -10e-5,3.9033 -1.9217,8.25691 -5.7648,13.06085 -0.9609,1.20105 -4.0234,4.44374 -9.1877,9.72808 1.9816,1.08094 6.5755,1.62139 13.7815,1.62135 l 10.8991,0 z" style="" id="path4119"/>
        <path d="m 992.02835,727.37587 -6.93576,0 c -8.64723,0 -15.34278,-3.99332 -20.08669,-11.97996 -4.68392,7.98664 -11.79982,11.97996 -21.34774,11.97996 l -8.82734,0 0,-40.89398 5.67472,0 c 6.42533,4e-5 10.89904,-1.92156 13.42115,-5.76479 0.60048,-0.9007 1.80148,-4.41362 3.603,-10.53876 1.14092,-3.84313 3.21264,-5.76473 6.21516,-5.76479 2.88237,6e-5 4.74391,1.92166 5.58464,5.76479 1.32106,5.88494 2.31189,9.39786 2.97247,10.53876 2.28186,3.84323 6.5454,5.76483 12.79063,5.76479 l 6.93576,0 z m -5.58464,-98.81211 c 0.72055,0.66065 0.69052,1.38125 -0.0901,2.1618 l -10.62884,10.62883 c -0.78068,0.78073 -1.56133,0.78073 -2.34194,0 l -10.17846,-9.81816 -9.90823,9.81816 c -0.78067,0.78073 -1.56131,0.78073 -2.34195,0 l -10.7189,-10.44868 c -0.84071,-0.8406 -0.75063,-1.77137 0.27022,-2.79232 l 9.90823,-9.99831 c 0.90074,-0.90064 1.80149,-0.90064 2.70225,0 l 10.08838,9.63801 9.54793,-9.63801 c 0.90072,-0.90064 1.80146,-0.90064 2.70225,0 z" style="" id="path4121"/>
        <path d="m 940.05518,727.37587 -5.58464,0 c -1.86168,0 -4.02348,-1.4412 -6.48539,-4.3236 -3.12272,-3.66303 -6.36541,-6.33525 -9.72808,-8.01666 -5.82496,-2.88238 -13.72151,-4.32357 -23.68968,-4.32359 -5.76489,2e-5 -10.50883,0.66057 -14.23183,1.98165 -2.22193,0.78066 -3.33285,1.56131 -3.33277,2.34194 -8e-5,1.44121 3.39273,2.16181 10.17846,2.1618 10.98903,10e-6 18.52528,0.60051 22.60879,1.8015 8.22671,2.402 12.34012,7.74643 12.34025,16.03332 -1.3e-4,25.76137 -20.89747,38.64206 -62.69209,38.64211 -23.83985,-5e-5 -40.05331,-5.67476 -48.64042,-17.02415 -4.9241,-6.54546 -7.38615,-15.76311 -7.38614,-27.65298 -1e-5,-8.16677 1.68139,-16.7539 5.0442,-25.7614 3.54292,-9.5479 7.20596,-14.32186 10.98913,-14.3219 4.74391,4e-5 7.11588,2.67226 7.11591,8.01666 -3e-5,1.86158 -0.28527,4.59384 -0.85571,8.19681 -0.57051,3.60301 -0.85574,6.33528 -0.85571,8.19681 -3e-5,17.05417 14.77223,25.58125 44.31682,25.58126 15.67293,-10e-6 27.77297,-0.90076 36.30016,-2.70225 3.12248,-0.66055 4.68378,-1.50125 4.6839,-2.52209 -1.2e-4,-0.96081 -1.56142,-1.56131 -4.6839,-1.8015 -5.40459,-0.42035 -11.01925,-0.63053 -16.84399,-0.63052 -8.88747,-10e-6 -15.07261,-0.57048 -18.55542,-1.71143 -5.82491,-1.92159 -8.73733,-5.82483 -8.73726,-11.70973 -7e-5,-12.3102 8.82726,-21.07748 26.482,-26.30185 11.34933,-3.36276 25.01067,-5.04415 40.98406,-5.04419 l 11.25935,0 z" style="" id="path4123"/>
        <path d="m 756.39259,680.44687 c -4e-5,5.28444 -0.81072,11.97999 -2.43202,20.08669 -1.68144,8.52711 -3.54298,14.98246 -5.58464,19.3661 -2.52213,5.28439 -4.8941,7.92658 -7.11591,7.92658 -2.40203,0 -4.47375,-3.21266 -6.21516,-9.63801 -2.46207,-9.06751 -7.68641,-40.32345 -15.67303,-93.76791 l 27.20261,-29.63462 c 1.68135,-1.86142 2.8223,-2.79219 3.42284,-2.79232 0.48036,1.3e-4 0.90071,0.84083 1.26105,2.52209 2.64215,11.95005 4.26349,26.21189 4.86404,42.78555 0.1801,5.04428 0.27018,19.42622 0.27022,43.14585 z" style="" id="path4125"/>
        <path d="m 708.47277,699.09237 c -7e-5,7.86655 -2.52216,14.59213 -7.56629,20.17676 -5.16434,5.82484 -11.64973,8.73726 -19.45616,8.73726 -9.84822,0 -17.86487,-4.74394 -24.04999,-14.23182 -4.14345,9.06753 -9.66804,13.6013 -16.57377,13.6013 l -5.76479,0 0,-40.89398 2.97247,0 c 7.56628,4e-5 11.49955,-2.37193 11.79981,-7.11591 0.36028,-6.30519 2.13175,-11.82977 5.31441,-16.57378 4.80397,-7.20591 11.9499,-10.8089 21.43782,-10.80898 11.40943,8e-5 19.96653,6.00506 25.67133,18.01497 4.14337,8.70729 6.21509,18.40533 6.21516,29.09418 z m -14.23182,-7.29607 c -6e-5,-3.84315 -1.05093,-7.98659 -3.15262,-12.43032 -2.52215,-5.34439 -5.46459,-8.01661 -8.82734,-8.01667 -1.80154,6e-5 -3.30278,0.70565 -4.50374,2.11676 -1.20104,1.41123 -1.80154,3.04759 -1.8015,4.90908 -4e-5,4.56384 0.99079,9.00753 2.97247,13.33108 2.52205,5.52462 5.9449,8.28691 10.26853,8.28688 3.36274,3e-5 5.04414,-2.73224 5.0442,-8.19681 z" style="" id="path4127"/>
        <path d="m 640.73648,727.37587 -6.93576,0 c -8.64723,0 -15.34278,-3.99332 -20.08669,-11.97996 -4.68392,7.98664 -11.79982,11.97996 -21.34774,11.97996 l -8.82734,0 0,-40.89398 5.67472,0 c 6.42533,4e-5 10.89904,-1.92156 13.42115,-5.76479 0.60048,-0.9007 1.80148,-4.41362 3.603,-10.53876 1.14092,-3.84313 3.21264,-5.76473 6.21516,-5.76479 2.88237,6e-5 4.74391,1.92166 5.58464,5.76479 1.32106,5.88494 2.31189,9.39786 2.97247,10.53876 2.28186,3.84323 6.5454,5.76483 12.79063,5.76479 l 6.93576,0 z m -5.76479,26.482 c 0.84065,0.66052 0.81062,1.41115 -0.0901,2.25187 l -10.71891,10.53876 c -0.78069,0.78061 -1.56133,0.78061 -2.34195,0 l -10.08838,-9.81816 -9.90823,9.81816 c -0.78067,0.78061 -1.56131,0.78061 -2.34195,0 l -10.7189,-10.44868 c -0.90075,-0.84073 -0.81068,-1.80153 0.27022,-2.8824 l 9.90823,-9.9983 c 0.90074,-0.90077 1.80149,-0.90077 2.70225,0 l 10.08838,9.72808 9.54793,-9.72808 c 0.90072,-0.90077 1.83149,-0.90077 2.79232,0 z" style="" id="path4129"/>
        <path d="m 588.58314,727.46594 -4.95412,0 c -2.46213,0 -4.68397,-0.7206 -6.66554,-2.16179 l 0,7.92658 c -7e-5,6.60548 -1.83159,13.99161 -5.49456,22.15841 -3.18272,7.14591 -6.66561,12.76057 -10.44868,16.844 -1.32116,1.44115 -3.15268,2.16175 -5.49457,2.1618 l -42.2451,0 c -4.98415,-5e-5 -7.47622,-2.04174 -7.47621,-6.12509 -10e-6,-2.22189 1.05086,-3.84323 3.15262,-4.86404 7.92656,-3.78318 17.71469,-9.66806 29.3644,-17.65467 15.13251,-10.32859 22.69879,-17.6847 22.69886,-22.06834 -7e-5,-3.60299 -6.75567,-11.70972 -20.26684,-24.32021 l 14.41197,-29.7247 c 0.90069,-1.80144 2.01161,-2.01161 3.33277,-0.63052 5.70468,5.94499 9.66796,9.78818 11.88988,11.52958 5.04411,3.96333 10.02825,5.94498 14.95242,5.94494 l 3.2427,0 z" style="" id="path4131"/>
        <path d="m 498.59837,596.85742 -3.15262,29.63462 c -0.12018,1.26115 -0.24028,1.98175 -0.3603,2.1618 -0.24028,0.42045 -0.84078,0.78074 -1.8015,1.0809 l -37.11083,11.52958 c 6.06499,7.20606 10.35855,13.42122 12.8807,18.64549 3.48284,7.2661 5.22428,15.43287 5.22434,24.50036 -6e-5,18.01499 -6.33531,30.50536 -19.00579,37.47113 -6.66557,3.66305 -14.71225,5.49457 -24.14006,5.49457 l -16.39362,0 0,-40.89398 8.46703,0 c 12.37026,4e-5 20.71719,-0.57043 25.04081,-1.71142 1.86151,-0.48036 2.79229,-1.50121 2.79232,-3.06255 -3e-5,-0.9007 -0.36033,-1.8615 -1.0809,-2.88239 -3.18267,-4.62379 -7.71643,-9.5779 -13.6013,-14.86235 -2.94246,-2.64213 -8.25687,-7.41609 -15.94325,-14.3219 l 5.04419,-29.0041 c 0.2402,-1.32099 0.87072,-2.16169 1.89158,-2.5221 l 69.808,-23.05916 c 0.54037,-0.18002 0.93069,-0.27009 1.17097,-0.27022 0.30017,1.3e-4 0.39025,0.6907 0.27023,2.07172 z" style="" id="path4133"/>
        <path d="m 420.23326,727.37587 -6.93576,0 c -8.64723,0 -15.34278,-3.99332 -20.08669,-11.97996 -4.68392,7.98664 -11.79982,11.97996 -21.34774,11.97996 l -8.82733,0 0,-40.89398 5.67471,0 c 6.42533,4e-5 10.89904,-1.92156 13.42115,-5.76479 0.60048,-0.9007 1.80148,-4.41362 3.603,-10.53876 1.14092,-3.84313 3.21264,-5.76473 6.21516,-5.76479 2.88237,6e-5 4.74391,1.92166 5.58464,5.76479 1.32107,5.88494 2.31189,9.39786 2.97247,10.53876 2.28186,3.84323 6.5454,5.76483 12.79063,5.76479 l 6.93576,0 z m -13.6013,26.30185 c 0.84066,0.78062 0.81063,1.62132 -0.0901,2.5221 l -12.07003,12.07003 c -0.84073,0.84065 -1.71145,0.84065 -2.61217,0 l -12.25018,-11.88988 c -1.02086,-0.96083 -0.93079,-2.04173 0.27022,-3.2427 l 11.25936,-11.34943 c 1.02082,-1.02086 2.04167,-1.02086 3.06254,0 z" style="" id="path4135"/>
        <path d="m 368.35015,727.37587 -6.93576,0 c -8.64723,0 -15.34278,-3.99332 -20.08669,-11.97996 -4.68392,7.98664 -11.79982,11.97996 -21.34774,11.97996 l -8.82733,0 0,-40.89398 5.67471,0 c 6.42533,4e-5 10.89904,-1.92156 13.42115,-5.76479 0.60048,-0.9007 1.80148,-4.41362 3.603,-10.53876 1.14092,-3.84313 3.21264,-5.76473 6.21516,-5.76479 2.88237,6e-5 4.74391,1.92166 5.58464,5.76479 1.32107,5.88494 2.31189,9.39786 2.97247,10.53876 2.28186,3.84323 6.5454,5.76483 12.79063,5.76479 l 6.93576,0 z m -5.76479,26.482 c 0.84065,0.66052 0.81063,1.41115 -0.0901,2.25187 l -10.71891,10.53876 c -0.78069,0.78061 -1.56133,0.78061 -2.34195,0 l -10.08838,-9.81816 -9.90823,9.81816 c -0.78067,0.78061 -1.56131,0.78061 -2.34195,0 l -10.7189,-10.44868 c -0.90075,-0.84073 -0.81068,-1.80153 0.27022,-2.8824 l 9.90823,-9.9983 c 0.90074,-0.90077 1.80149,-0.90077 2.70225,0 l 10.08838,9.72808 9.54794,-9.72808 c 0.90071,-0.90077 1.83148,-0.90077 2.79232,0 z" style="" id="path4137"/>
        <path d="m 316.19682,727.46594 -4.95412,0 c -2.46213,0 -4.68397,-0.7206 -6.66554,-2.16179 l 0,7.92658 c -8e-5,6.60548 -1.8316,13.99161 -5.49456,22.15841 -3.18272,7.14591 -6.66561,12.76057 -10.44869,16.844 -1.32116,1.44115 -3.15268,2.16175 -5.49456,2.1618 l -42.2451,0 c -4.98416,-5e-5 -7.47622,-2.04174 -7.47622,-6.12509 0,-2.22189 1.05087,-3.84323 3.15262,-4.86404 7.92657,-3.78318 17.71469,-9.66806 29.3644,-17.65467 15.13252,-10.32859 22.6988,-17.6847 22.69886,-22.06834 -6e-5,-3.60299 -6.75567,-11.70972 -20.26684,-24.32021 l 14.41198,-29.7247 c 0.90069,-1.80144 2.01161,-2.01161 3.33277,-0.63052 5.70467,5.94499 9.66796,9.78818 11.88988,11.52958 5.04411,3.96333 10.02825,5.94498 14.95242,5.94494 l 3.2427,0 z" style="" id="path4139"/>
      </g>
      <g style="font-size:181.06852722px;font-style:normal;font-variant:normal;font-weight:normal;font-stretch:normal;line-height:125%;letter-spacing:0px;word-spacing:0px;fill:#000000;fill-opacity:1;stroke:none;font-family:B Yagut;-inkscape-font-specification:B Yagut" id="text4046">
        <path d="m 1612.6977,928.27302 c 0,17.91824 -4.067,35.3944 -12.2009,52.42853 -3.5365,7.36766 -9.4306,16.88672 -17.6824,28.55715 -1.7683,2.4755 -3.2124,3.7133 -4.3322,3.7134 -0.5895,-10e-5 -0.8842,-0.4716 -0.8842,-1.4146 0,-0.9432 0.3242,-2.1809 0.9726,-3.7134 6.0709,-14.38174 10.0495,-24.6965 11.9356,-30.94428 4.7153,-15.73741 7.073,-31.9758 7.073,-48.71522 0,-17.09301 -2.3282,-33.74399 -6.9845,-49.95298 -2.2988,-7.95703 -6.2479,-18.56651 -11.8473,-31.82846 -0.6484,-1.53237 -0.9726,-2.77014 -0.9725,-3.71332 -10e-5,-1.23766 0.4715,-1.67972 1.4146,-1.32618 1.0609,0.35376 2.3281,1.56206 3.8017,3.62491 8.075,11.19899 14.0575,21.04223 17.9477,29.52973 7.8392,17.03418 11.7588,34.9524 11.7588,53.75472 z" style="font-weight:bold;-inkscape-font-specification:B Yagut Bold" id="path4142"/>
        <path d="m 1521.4561,939.32456 c 0,7.30876 -0.1474,11.31679 -0.442,12.02408 -1.2968,3.18285 -11.7,4.77427 -31.2096,4.77427 -2.9471,0 -7.3972,-0.2505 -13.3503,-0.7515 -5.9531,-0.50101 -10.4032,-0.75151 -13.3502,-0.75151 l -8.8413,0 c -3.5365,0 -5.3047,-1.76824 -5.3047,-5.30474 l 0,-17.50565 13.6155,0 c 3.006,2e-5 7.515,0.17685 13.5271,0.53047 6.012,0.35368 10.521,0.5305 13.5271,0.53048 7.1319,2e-5 12.1714,-0.47151 15.1185,-1.4146 -2.2398,-7.01402 -5.9826,-13.73335 -11.2284,-20.15802 l 11.3168,-18.21295 c 0.8841,-1.41453 1.7682,-1.50294 2.6524,-0.26523 9.3127,12.84931 13.9691,28.35093 13.9691,46.5049 z m -7.4266,40.93493 -8.7528,13.17344 -16.7984,-9.54854 -6.4541,10.34425 -17.8593,-10.07901 8.4876,-13.43868 15.5606,9.01806 6.5425,-9.99059 z m -5.4816,21.66101 -8.3992,12.9082 -16.8867,-9.7253 8.0455,-13.43872 z" style="font-weight:bold;-inkscape-font-specification:B Yagut Bold" id="path4144"/>
        <path d="m 1456.7383,951.52547 c -1.7683,2.00401 -9.3717,3.1239 -22.8104,3.35967 l 3.8902,-0.0884 c -2.5935,-0.11789 -11.7294,-0.17683 -27.4079,-0.17683 l -8.8412,0 c -3.5365,0 -5.3047,-1.76824 -5.3047,-5.30474 l 0,-17.50565 46.5049,0 -8.3108,-68.69641 13.9692,-13.96915 c 1.2966,-1.29661 2.1513,-1.94497 2.5639,-1.94508 0.5304,1.1e-4 0.8546,1.00212 0.9726,3.00603 3.1827,49.39309 4.7742,76.65355 4.7742,81.78143 z" style="font-weight:bold;-inkscape-font-specification:B Yagut Bold" id="path4146"/>
        <path d="m 1406.8738,954.6199 -8.4876,0 c -2.0631,0 -5.1133,-0.17682 -9.1507,-0.53047 -4.0376,-0.35365 -7.0878,-0.53048 -9.1507,-0.53048 -5.1869,0 -9.1655,0.61889 -11.9356,1.85666 19.0969,7.30875 28.6455,11.81778 28.6456,13.52709 -10e-5,1.88612 -0.3833,4.83319 -1.1494,8.84124 -0.8253,4.36165 -1.621,7.10243 -2.3871,8.22235 -4.4207,6.18883 -12.8494,11.16939 -25.286,14.94171 -10.3148,3.1238 -20.2465,4.6858 -29.7949,4.6858 -9.8433,0 -17.6531,-2.564 -23.4293,-7.69184 -6.0121,-5.42266 -9.0181,-12.99665 -9.0181,-22.72198 0,-13.43868 5.01,-26.05217 15.0301,-37.84049 0.9431,-1.11987 1.7977,-1.67982 2.564,-1.67984 0.5304,2e-5 0.7957,0.26526 0.7957,0.79572 0,0.53049 -0.2947,1.23779 -0.8841,2.12189 -6.5426,9.96114 -9.8138,18.50766 -9.8138,25.63959 0,7.13191 4.0669,12.43665 12.2009,15.91422 6.071,2.59341 13.2029,3.89012 21.3958,3.89015 15.089,-3e-5 25.7279,-1.56198 31.9169,-4.68586 -3.124,-1.23779 -8.7235,-3.47757 -16.7984,-6.71934 -6.9552,-2.88815 -10.4327,-5.51105 -10.4326,-7.8687 -10e-5,-1.94508 1.3261,-6.1594 3.9785,-12.64297 2.8881,-7.13192 5.5405,-11.72936 7.9571,-13.79232 2.6523,-2.29871 7.6034,-4.03748 14.8533,-5.21633 5.4815,-0.88411 10.9041,-1.32617 16.2679,-1.32619 l 12.1125,0 z" style="font-weight:bold;-inkscape-font-specification:B Yagut Bold" id="path4148"/>
        <path d="m 1240.4816,868.59467 -11.4936,13.6155 -12.3777,-10.96313 -9.1949,10.96313 -13.9691,-12.37773 10.9631,-13.43868 12.8198,10.78631 8.7528,-10.78631 z m 9.0181,70.72989 c -10e-5,7.30876 -0.1474,11.31679 -0.4421,12.02408 -1.2967,3.18285 -11.6999,4.77427 -31.2095,4.77427 -2.9471,0 -7.3972,-0.2505 -13.3503,-0.7515 -5.9531,-0.50101 -10.4032,-0.75151 -13.3503,-0.75151 l -8.8412,0 c -3.5365,0 -5.3047,-1.76824 -5.3047,-5.30474 l 0,-17.50565 13.6155,0 c 3.006,2e-5 7.515,0.17685 13.5271,0.53047 6.012,0.35368 10.521,0.5305 13.5271,0.53048 7.1318,2e-5 12.1713,-0.47151 15.1185,-1.4146 -2.2399,-7.01402 -5.9826,-13.73335 -11.2284,-20.15802 l 11.3168,-18.21295 c 0.8841,-1.41453 1.7682,-1.50294 2.6524,-0.26523 9.3127,12.84931 13.969,28.35093 13.9691,46.5049 z" style="font-weight:bold;-inkscape-font-specification:B Yagut Bold" id="path4150"/>
        <path d="m 1184.7819,930.92539 c -10e-5,11.72938 -1.12,18.65501 -3.3597,20.7769 -1.8273,1.76825 -7.8098,3.15338 -17.9477,4.15538 -7.6035,0.76624 -14.1166,1.14936 -19.5392,1.14936 -3.4186,0 -8.5023,-0.2505 -15.2511,-0.7515 -6.7488,-0.50101 -11.8325,-0.75151 -15.2511,-0.75151 l -6.4541,0 c -3.5365,0 -5.3048,-1.76824 -5.3048,-5.30474 l 0,-17.50565 11.14,0 c 3.3597,3e-5 8.4286,0.28 15.2069,0.83992 6.7783,0.55997 11.8472,0.83994 15.2069,0.83992 9.2538,2e-5 16.8573,-0.41257 22.8104,-1.23777 -9.9022,-9.60745 -21.219,-18.09503 -33.9503,-25.46277 l -2.4756,3.35967 c -6.3067,-5.00998 -10.0495,-8.92959 -11.2283,-11.75884 -0.1179,-0.23571 -0.1769,-0.61883 -0.1769,-1.14936 0,-0.88407 0.1769,-2.15131 0.5305,-3.80173 0.4715,-2.53443 0.9725,-4.12585 1.503,-4.77427 2.5345,-3.12384 11.2873,-7.92757 26.2585,-14.41122 14.3228,-6.24772 25.6985,-10.37362 34.1272,-12.37773 1.4734,-0.35356 2.2986,-0.4125 2.4755,-0.17682 0.4125,0.41268 -0.8547,5.48165 -3.8017,15.20692 -10.5506,3.41869 -17.3289,5.65847 -20.3349,6.71934 -7.6624,2.71138 -14.2344,5.48164 -19.7159,8.31077 6.3656,3.30078 14.9711,9.04758 25.8164,17.24041 13.1439,9.96116 19.7159,16.91626 19.716,20.86532 z" style="font-weight:bold;-inkscape-font-specification:B Yagut Bold" id="path4152"/>
        <path d="m 1084.6991,857.45471 -6.9846,16.62152 -18.655,-7.42663 6.7193,-16.26788 z m 24.7554,81.86985 c 0,7.30876 -0.1474,11.31679 -0.442,12.02408 -1.2968,3.18285 -11.7,4.77427 -31.2096,4.77427 -2.9471,0 -7.3972,-0.2505 -13.3503,-0.7515 -5.9531,-0.50101 -10.4032,-0.75151 -13.3502,-0.75151 l -8.8413,0 c -3.5364,0 -5.3047,-1.76824 -5.3047,-5.30474 l 0,-17.50565 13.6155,0 c 3.006,2e-5 7.515,0.17685 13.5271,0.53047 6.012,0.35368 10.521,0.5305 13.5271,0.53048 7.1319,2e-5 12.1714,-0.47151 15.1185,-1.4146 -2.2398,-7.01402 -5.9826,-13.73335 -11.2284,-20.15802 l 11.3168,-18.21295 c 0.8841,-1.41453 1.7682,-1.50294 2.6524,-0.26523 9.3127,12.84931 13.9691,28.35093 13.9691,46.5049 z" style="font-weight:bold;-inkscape-font-specification:B Yagut Bold" id="path4154"/>
        <path d="m 1044.7366,939.32456 c 0,7.30876 -0.1474,11.31679 -0.442,12.02408 -1.2968,3.18285 -11.7,4.77427 -31.2096,4.77427 -2.9471,0 -7.3972,-0.2505 -13.35025,-0.7515 -5.95311,-0.50101 -10.4032,-0.75151 -13.35027,-0.75151 l -8.84123,0 c -3.53649,0 -5.30474,-1.76824 -5.30475,-5.30474 l 0,-17.50565 13.61551,0 c 3.00601,2e-5 7.51504,0.17685 13.52709,0.53047 6.012,0.35368 10.521,0.5305 13.5271,0.53048 7.1319,2e-5 12.1714,-0.47151 15.1185,-1.4146 -2.2398,-7.01402 -5.9826,-13.73335 -11.2284,-20.15802 l 11.3168,-18.21295 c 0.8841,-1.41453 1.7682,-1.50294 2.6524,-0.26523 9.3127,12.84931 13.9691,28.35093 13.9691,46.5049 z m -9.9021,58.35216 -11.4936,13.61548 -12.3778,-10.9631 -9.1949,10.9631 -13.96912,-12.3777 10.96313,-13.43868 12.81979,10.78631 8.7528,-10.78631 z" style="font-weight:bold;-inkscape-font-specification:B Yagut Bold" id="path4156"/>
        <path d="m 980.1072,930.92539 c 0.64823,11.25785 -0.44219,18.18348 -3.27126,20.7769 -1.94519,1.76825 -10.96324,3.47756 -27.05418,5.12792 -15.56066,1.59142 -30.0308,2.38713 -43.41047,2.38713 -24.99126,0 -37.48686,-7.78028 -37.48685,-23.34086 -1e-5,-5.83519 1.44406,-11.75882 4.33221,-17.77089 0.94304,-2.00397 1.85664,-3.00598 2.74078,-3.00602 0.94304,4e-5 1.32616,1.32623 1.14936,3.97856 -0.17684,2.53452 -0.26526,4.21435 -0.26523,5.0395 -3e-5,6.36572 3.74276,10.28533 11.22837,11.75885 2.12186,0.41261 8.39913,0.6189 18.83183,0.61889 25.16798,10e-6 43.35143,-1.11988 54.55043,-3.35967 -10.7864,-10.07898 -22.10318,-18.56656 -33.95035,-25.46277 l -2.47554,3.35967 c -6.30682,-5.00998 -10.0496,-8.92959 -11.22837,-11.75884 -0.11795,-0.23571 -0.17689,-0.61883 -0.17683,-1.14936 -6e-5,-0.88407 0.17677,-2.15131 0.53048,-3.80173 0.47147,-2.53443 0.97247,-4.12585 1.50301,-4.77427 2.53442,-3.12384 11.28723,-7.92757 26.25847,-14.41122 14.3227,-6.24772 25.69841,-10.37362 34.12717,-12.37773 1.47342,-0.35356 2.2986,-0.4125 2.47555,-0.17682 0.41246,0.41268 -0.85478,5.48165 -3.80173,15.20692 -10.55066,3.41869 -17.32893,5.65847 -20.33485,6.71934 -7.6625,2.71138 -14.23448,5.48164 -19.71596,8.31077 6.83714,3.47761 15.4426,9.16546 25.81642,17.06358 12.84914,9.78434 19.39165,16.79838 19.62754,21.04215 z" style="font-weight:bold;-inkscape-font-specification:B Yagut Bold" id="path4158"/>
        <path d="m 803.72453,868.59467 -11.4936,13.6155 -12.37773,-10.96313 -9.19489,10.96313 -13.96915,-12.37773 10.96313,-13.43868 12.81979,10.78631 8.75283,-10.78631 z m 9.01807,70.72989 c -7e-5,7.30876 -0.14742,11.31679 -0.44207,12.02408 -1.29677,3.18285 -11.69995,4.77427 -31.20956,4.77427 -2.94711,0 -7.39719,-0.2505 -13.35027,-0.7515 -5.95311,-0.50101 -10.4032,-0.75151 -13.35027,-0.75151 l -8.84123,0 c -3.53649,0 -5.30474,-1.76824 -5.30474,-5.30474 l 0,-17.50565 13.6155,0 c 3.00601,2e-5 7.51504,0.17685 13.52709,0.53047 6.01202,0.35368 10.52104,0.5305 13.52709,0.53048 7.1319,2e-5 12.1714,-0.47151 15.11852,-1.4146 -2.23983,-7.01402 -5.98261,-13.73335 -11.22837,-20.15802 l 11.31678,-18.21295 c 0.88408,-1.41453 1.7682,-1.50294 2.65237,-0.26523 9.31271,12.84931 13.96909,28.35093 13.96916,46.5049 z" style="font-weight:bold;-inkscape-font-specification:B Yagut Bold" id="path4160"/>
        <path d="m 750.85395,954.6199 -12.9082,0 c 1.88607,2.23978 2.94702,4.80373 3.18284,7.69188 -3.30078,23.5766 -7.54457,35.3649 -12.73138,35.36494 -5.65843,-4e-5 -11.61153,-3.12394 -17.8593,-9.37171 -8.25184,-8.25184 -13.11451,-19.4802 -14.58804,-33.68511 l -15.82581,0 c -1.35566,0 -2.57869,-0.54521 -3.66912,-1.63563 -1.09041,-1.09041 -1.63562,-2.31345 -1.63562,-3.66911 l 0,-17.50565 24.04816,0 c 1.06093,-6.71931 4.00801,-14.70589 8.84124,-23.95975 5.65836,-10.84519 11.90616,-19.03807 18.74342,-24.57864 1.17878,-0.94299 1.91555,-1.41452 2.21031,-1.4146 0.29466,8e-5 0.76619,0.47161 1.41459,1.4146 1.41455,2.06303 2.85862,5.45216 4.33221,10.16742 1.88608,6.12998 2.82914,11.93572 2.8292,17.41724 -6e-5,9.13598 -2.41666,16.12055 -7.24982,20.95373 l 20.86532,0 z m -24.22499,-29.08767 c -4e-5,-7.78025 -1.56199,-14.55852 -4.68585,-20.33484 -6.77832,6.07102 -11.7294,14.91225 -14.85328,26.52371 7.78026,-0.23575 14.29329,-2.2987 19.53913,-6.18887 z m 6.01204,47.74268 c -5e-5,-6.01205 -2.88818,-10.9042 -8.66441,-14.67645 -5.01007,-3.30073 -10.66845,-4.95109 -16.97517,-4.9511 1.1788,6.12992 3.65435,11.34625 7.42664,15.64899 4.36164,4.89213 9.43061,7.33821 15.20692,7.33823 1.41455,-2e-5 2.2692,-0.19158 2.56396,-0.57468 0.29466,-0.38314 0.44201,-1.31147 0.44206,-2.78499 z" style="font-weight:bold;-inkscape-font-specification:B Yagut Bold" id="path4162"/>
        <path d="m 682.59961,946.7512 c -8e-5,14.20491 -3.38922,27.34887 -10.16743,39.43192 -7.83929,13.96908 -17.88882,20.95368 -30.14861,20.95368 -5.59949,0 -11.81782,-3.2713 -18.65501,-9.81373 -5.95312,-5.65842 -10.34426,-11.55258 -13.17344,-17.68247 -0.88414,-1.88615 -1.3262,-3.27128 -1.32619,-4.15538 -10e-6,-0.64838 0.23576,-0.97256 0.7073,-0.97254 0.76623,-2e-5 1.97453,0.5894 3.62491,1.76825 7.48556,5.24577 15.35425,7.86867 23.6061,7.8687 8.13389,-3e-5 15.47211,-3.00605 22.01468,-9.01806 6.01197,-5.48158 10.25576,-12.34827 12.73138,-20.60008 -2.53456,-6.9551 -8.04559,-14.38173 -16.53311,-22.27992 l 9.37171,-20.7769 c 11.96506,7.95714 17.94763,19.71598 17.94771,35.27653 z" style="font-weight:bold;-inkscape-font-specification:B Yagut Bold" id="path4164"/>
        <path d="m 600.90659,929.86444 c 0.11784,2.77027 -1.62093,6.95512 -5.21633,12.55455 -3.06499,4.77428 -5.9826,8.45812 -8.75283,11.05155 -1.11991,1.06095 -1.82721,1.59142 -2.12189,1.59142 l 0,0 c -0.29473,0 -0.41261,-0.94306 -0.35365,-2.82919 0.35363,-8.78229 0.50098,-14.70591 0.44206,-17.77089 -0.17685,-8.5465 -0.8252,-20.51163 -1.94507,-35.89542 -1.29674,-16.68039 -2.06298,-28.61605 -2.29873,-35.80701 l 14.2344,-17.50565 c 0.64832,-0.82507 1.11985,-1.23766 1.41459,-1.23777 0.41256,1.1e-4 0.64833,0.82529 0.7073,2.47555 z" style="font-weight:bold;-inkscape-font-specification:B Yagut Bold" id="path4166"/>
        <path d="m 534.42049,876.46337 -6.98458,16.62152 -18.65501,-7.42664 6.71934,-16.26787 z m 30.14862,69.22688 c -10e-5,16.38575 -2.91771,28.17406 -8.75283,35.36495 -3.35976,4.12588 -10.81586,8.25178 -22.36833,12.37773 -10.72742,3.83116 -19.215,5.74676 -25.46276,5.7468 -10.07904,-4e-5 -17.65303,-4.03754 -22.72198,-12.11249 -4.30275,-6.77831 -6.45411,-15.47218 -6.4541,-26.08165 -10e-6,-6.89616 1.35564,-14.38174 4.06697,-22.45674 2.71129,-8.07497 6.1299,-14.88272 10.25583,-20.42326 0.76621,-1.00197 1.53245,-1.50297 2.29873,-1.50301 0.58938,4e-5 0.88409,0.32422 0.88412,0.97254 -3e-5,0.53051 -0.2358,1.29675 -0.7073,2.29872 -6.42466,13.26188 -9.63697,24.43129 -9.63695,33.50829 -2e-5,7.13192 1.95979,12.84925 5.87943,17.152 3.91958,4.30271 9.41587,6.45408 16.4889,6.4541 15.85522,-2e-5 30.64955,-4.50905 44.38301,-13.52709 -9e-5,-15.08904 -3.80182,-27.61411 -11.4052,-37.57526 l 10.87473,-18.30136 c 0.64826,-1.0609 1.29662,-1.14931 1.94507,-0.26524 6.95501,9.19493 10.43256,21.98524 10.43266,38.37097 z" style="font-weight:bold;-inkscape-font-specification:B Yagut Bold" id="path4168"/>
        <path d="m 421.42948,846.40316 c -6.07102,14.38184 -10.04958,24.69661 -11.93567,30.94433 -4.71536,15.73746 -7.07302,31.97585 -7.07298,48.71522 -4e-5,17.09307 2.32815,33.74404 6.98457,49.95298 2.29868,7.95709 6.24776,18.56656 11.84726,31.82841 0.64831,1.5325 0.97248,2.7702 0.97254,3.7134 -6e-5,1.2377 -0.47159,1.6797 -1.4146,1.3262 -1.061,-0.3538 -2.32824,-1.5621 -3.80173,-3.625 -8.07504,-11.1989 -14.0576,-21.04213 -17.94771,-29.52969 -7.83925,-17.03412 -11.75887,-34.95234 -11.75885,-53.75472 -2e-5,-17.91819 4.06695,-35.39435 12.20091,-52.42853 3.53646,-7.36761 9.43061,-16.88666 17.68247,-28.55719 1.7682,-2.47544 3.21227,-3.71321 4.33221,-3.71332 0.58936,1.1e-4 0.88407,0.47164 0.88412,1.41459 -5e-5,0.94318 -0.32423,2.18095 -0.97254,3.71332 z" style="font-weight:bold;-inkscape-font-specification:B Yagut Bold" id="path4170"/>
      </g>
    </g>
  </g>
<script xmlns=""/></svg>