<?xml version="1.0" encoding="utf-8"?>
<!-- Generator: Adobe Illustrator 24.1.1, SVG Export Plug-In . SVG Version: 6.00 Build 0)  -->
<svg version="1.1" id="Layer_1" xmlns="http://www.w3.org/2000/svg" xmlns:xlink="http://www.w3.org/1999/xlink" x="0px" y="0px"
	 viewBox="0 0 1649 381.8" style="enable-background:new 0 0 1649 381.8;" xml:space="preserve">
<style type="text/css">
	.st0{fill:#00FFFF;}
	.st1{fill:#00FF00;}
	.st2{fill:#FF0000;}
	.st3{fill:#FFFF00;}
</style>
<g>
	<path class="st0" d="M11,381.3c-5.8,0-10.5-4.7-10.5-10.5V11C0.5,5.2,5.2,0.5,11,0.5h273c5.8,0,10.5,4.7,10.5,10.5v359.8
		c0,5.8-4.7,10.5-10.5,10.5H11z"/>
	<path d="M284.1,1c5.5,0,10,4.5,10,10v359.8c0,5.5-4.5,10-10,10H11c-5.5,0-10-4.5-10-10V11C1,5.5,5.5,1,11,1H284.1 M284.1,0H11
		C4.9,0,0,4.9,0,11v359.8c0,6.1,4.9,11,11,11h273c6.1,0,11-4.9,11-11V11C295.1,4.9,290.2,0,284.1,0L284.1,0z"/>
</g>
<g>
	<path class="st0" d="M349.5,381.3c-5.8,0-10.5-4.7-10.5-10.5V11c0-5.8,4.7-10.5,10.5-10.5h273c5.8,0,10.5,4.7,10.5,10.5v359.8
		c0,5.8-4.7,10.5-10.5,10.5H349.5z"/>
	<path d="M622.5,1c5.5,0,10,4.5,10,10v359.8c0,5.5-4.5,10-10,10h-273c-5.5,0-10-4.5-10-10V11c0-5.5,4.5-10,10-10H622.5 M622.5,0
		h-273c-6.1,0-11,4.9-11,11v359.8c0,6.1,4.9,11,11,11h273c6.1,0,11-4.9,11-11V11C633.6,4.9,628.6,0,622.5,0L622.5,0z"/>
</g>
<g>
	<path class="st0" d="M688,381.3c-5.8,0-10.5-4.7-10.5-10.5V11c0-5.8,4.7-10.5,10.5-10.5h273c5.8,0,10.5,4.7,10.5,10.5v359.8
		c0,5.8-4.7,10.5-10.5,10.5H688z"/>
	<path d="M961,1c5.5,0,10,4.5,10,10v359.8c0,5.5-4.5,10-10,10H688c-5.5,0-10-4.5-10-10V11c0-5.5,4.5-10,10-10H961 M961,0H688
		c-6.1,0-11,4.9-11,11v359.8c0,6.1,4.9,11,11,11h273c6.1,0,11-4.9,11-11V11C972.1,4.9,967.1,0,961,0L961,0z"/>
</g>
<g>
	<path class="st0" d="M1026.5,381.3c-5.8,0-10.5-4.7-10.5-10.5V11c0-5.8,4.7-10.5,10.5-10.5h273c5.8,0,10.5,4.7,10.5,10.5v359.8
		c0,5.8-4.7,10.5-10.5,10.5H1026.5z"/>
	<path d="M1299.5,1c5.5,0,10,4.5,10,10v359.8c0,5.5-4.5,10-10,10h-273c-5.5,0-10-4.5-10-10V11c0-5.5,4.5-10,10-10H1299.5 M1299.5,0
		h-273c-6.1,0-11,4.9-11,11v359.8c0,6.1,4.9,11,11,11h273c6.1,0,11-4.9,11-11V11C1310.5,4.9,1305.6,0,1299.5,0L1299.5,0z"/>
</g>
<g>
	<path class="st0" d="M1364.9,381.3c-5.8,0-10.5-4.7-10.5-10.5V11c0-5.8,4.7-10.5,10.5-10.5h273c5.8,0,10.5,4.7,10.5,10.5v359.8
		c0,5.8-4.7,10.5-10.5,10.5H1364.9z"/>
	<path d="M1638,1c5.5,0,10,4.5,10,10v359.8c0,5.5-4.5,10-10,10h-273c-5.5,0-10-4.5-10-10V11c0-5.5,4.5-10,10-10H1638 M1638,0h-273
		c-6.1,0-11,4.9-11,11v359.8c0,6.1,4.9,11,11,11h273c6.1,0,11-4.9,11-11V11C1649,4.9,1644.1,0,1638,0L1638,0z"/>
</g>
<g>
	<g>
		<rect x="25.5" y="25.5" class="st1" width="112" height="155"/>
		<path d="M137,26v154H26V26H137 M138,25H25v156h113V25L138,25z"/>
	</g>
	<g>
		<path d="M80.7,61.1c-2.8,0-4.8-1-6.1-3.1c-0.2-0.3-0.3-0.6-0.3-0.8c0-0.4,0.2-0.7,0.5-1s0.6-0.4,1-0.4c0.4,0,0.8,0.2,1.1,0.6
			c0.5,0.6,0.9,1,1.2,1.2c0.6,0.4,1.5,0.6,2.6,0.6c1.7,0,3.1-0.6,4.2-1.9c1.1-1.2,1.6-2.7,1.6-4.4c0-1.4-0.2-2.6-0.7-3.5
			c-0.6-1.1-1.5-1.7-2.8-1.7c-1,0-1.9,0.1-2.6,0.4c-0.5,0.2-1.1,0.6-1.6,1.2l-1.6,1.7c-0.4,0.4-0.9,0.7-1.3,0.7
			c-0.4,0-0.7-0.1-1-0.4s-0.4-0.6-0.4-1c0-0.2,0.1-1.1,0.2-2.6c0.3-3.1,0.5-5.1,0.5-6.1c0-0.3-0.1-0.7-0.3-1.1s-0.3-0.7-0.3-0.9
			c0-0.6,0.5-0.9,1.5-0.9c0.2,0,0.5,0,0.9,0.1s0.7,0.1,0.9,0.1c0.6,0,1.4,0,2.5-0.1s2-0.1,2.5-0.1c0.3,0,0.7,0,1.2,0s0.9,0,1.2,0
			c0.2,0,0.5,0,0.8-0.1s0.6-0.1,0.8-0.1c0.4,0,0.7,0.1,1,0.4s0.4,0.6,0.4,1c0,1.1-1.2,1.6-3.5,1.6c-0.3,0-0.7,0-1.1,0s-0.7,0-0.8,0
			l-2.5,0l-2.5,0.1c0,0.4-0.2,2.1-0.5,4.9c1.3-1.1,3.1-1.6,5.3-1.6c2.1,0,3.8,0.8,4.9,2.5c1,1.4,1.4,3.2,1.4,5.4
			c0,2.6-0.8,4.8-2.3,6.5C85.4,60.2,83.3,61.1,80.7,61.1z"/>
	</g>
</g>
<g>
	<g>
		<rect x="52.3" y="63" class="st2" width="112" height="155"/>
		<path d="M163.8,63.5v154h-111v-154H163.8 M164.8,62.5h-113v156h113V62.5L164.8,62.5z"/>
	</g>
	<g>
		<path d="M107.4,98.6c-2.8,0-4.8-1-6.1-3.1c-0.2-0.3-0.3-0.6-0.3-0.8c0-0.4,0.2-0.7,0.5-1s0.6-0.4,1-0.4c0.4,0,0.8,0.2,1.1,0.6
			c0.5,0.6,0.9,1,1.2,1.2c0.6,0.4,1.5,0.6,2.6,0.6c1.7,0,3.1-0.6,4.2-1.9c1.1-1.2,1.6-2.7,1.6-4.4c0-1.4-0.2-2.6-0.7-3.5
			c-0.6-1.1-1.5-1.7-2.8-1.7c-1,0-1.9,0.1-2.6,0.4c-0.5,0.2-1.1,0.6-1.6,1.2l-1.6,1.7c-0.4,0.4-0.9,0.7-1.3,0.7
			c-0.4,0-0.7-0.1-1-0.4s-0.4-0.6-0.4-1c0-0.2,0.1-1.1,0.2-2.6c0.3-3.1,0.5-5.1,0.5-6.1c0-0.3-0.1-0.7-0.3-1.1s-0.3-0.7-0.3-0.9
			c0-0.6,0.5-0.9,1.5-0.9c0.2,0,0.5,0,0.9,0.1s0.7,0.1,0.9,0.1c0.6,0,1.4,0,2.5-0.1s2-0.1,2.5-0.1c0.3,0,0.7,0,1.2,0s0.9,0,1.2,0
			c0.2,0,0.5,0,0.8-0.1s0.6-0.1,0.8-0.1c0.4,0,0.7,0.1,1,0.4s0.4,0.6,0.4,1c0,1.1-1.2,1.6-3.5,1.6c-0.3,0-0.7,0-1.1,0s-0.7,0-0.8,0
			l-2.5,0l-2.5,0.1c0,0.4-0.2,2.1-0.5,4.9c1.3-1.1,3.1-1.6,5.3-1.6c2.1,0,3.8,0.8,4.9,2.5c1,1.4,1.4,3.2,1.4,5.4
			c0,2.6-0.8,4.8-2.3,6.5C112.2,97.7,110.1,98.6,107.4,98.6z"/>
	</g>
</g>
<g>
	<g>
		<rect x="79" y="100.5" class="st3" width="112" height="155"/>
		<path d="M190.5,101v154h-111V101H190.5 M191.5,100h-113v156h113V100L191.5,100z"/>
	</g>
	<g>
		<path d="M140.1,128.8v5.4c0,0.9-0.4,1.4-1.3,1.4c-1,0-1.6-0.7-1.6-2.1c0-0.2,0-0.4,0-0.7s0-0.5,0-0.7l0-3.3l-6.5-0.2
			c-1.3,0-2.3,0-2.8-0.1c-0.9-0.1-1.3-0.5-1.3-1c0-0.4,0.3-1,0.8-1.7l1.3-1.5l7.2-10.5c0.7-0.9,1.5-1.4,2.5-1.4
			c1.1,0,1.7,0.5,1.7,1.4v12.2c0.2,0,0.4,0,0.6,0c1.8,0,2.7,0.5,2.7,1.5c0,0.7-0.4,1.1-1.1,1.3C141.9,128.8,141.2,128.8,140.1,128.8
			z M137.2,116.4c-2.6,4.2-4.6,7.3-6.1,9.3l6.1,0.1V116.4z"/>
	</g>
</g>
<g>
	<g>
		<rect x="363.9" y="25.5" class="st1" width="112" height="155"/>
		<path d="M475.4,26v154h-111V26H475.4 M476.4,25h-113v156h113V25L476.4,25z"/>
	</g>
	<g>
		<path d="M425.6,60.2c-0.2,0-0.6-0.1-1-0.2s-0.8-0.2-1-0.2c-0.5,0-1.2,0-2.2,0.1s-1.7,0.1-2.3,0.1c-0.4,0-0.9,0-1.7,0.1
			s-1.3,0.1-1.7,0.1c-0.1,0-0.3,0-0.5-0.1s-0.4-0.1-0.5-0.1c-0.7,0-1.1-0.3-1.3-1c-0.1-0.3-0.2-0.9-0.2-1.8c0-2.3,0.6-4.1,1.9-5.5
			c0.6-0.6,2.1-1.8,4.6-3.5c1.4-1,2.3-1.7,2.8-2.2c0.8-0.9,1.3-2,1.3-3.3c0-0.6-0.4-1.2-1.2-1.7c-0.7-0.4-1.4-0.7-2.1-0.7
			c-0.9,0-1.8,0.3-2.6,0.8l-2.1,1.6c-0.4,0.3-0.8,0.5-1,0.5c-1,0-1.5-0.4-1.5-1.2c0-0.5,0.2-0.9,0.6-1.2c1.1-1.1,2.1-1.9,3-2.3
			c1.2-0.7,2.4-1,3.6-1c1.6,0,3,0.4,4.2,1.3c1.4,1,2.1,2.2,2.1,3.7c0,1-0.1,1.9-0.4,2.8s-0.7,1.6-1.3,2.3c-0.7,0.9-2,1.9-3.7,2.9
			c-1.8,1.2-3,2-3.6,2.6c-1.1,1.1-1.6,2.5-1.6,4.1l3-0.3c2.1-0.1,3.5-0.2,4.4-0.2c0.7,0,1.4,0.1,2.1,0.4c0.9,0.3,1.3,0.8,1.3,1.4
			c0,0.4-0.1,0.7-0.4,1S426,60.2,425.6,60.2z"/>
	</g>
</g>
<g>
	<g>
		<rect x="390.8" y="63" class="st2" width="112" height="155"/>
		<path d="M502.3,63.5v154h-111v-154H502.3 M503.3,62.5h-113v156h113V62.5L503.3,62.5z"/>
	</g>
	<g>
		<path d="M451.8,91.3v5.4c0,0.9-0.4,1.4-1.3,1.4c-1,0-1.6-0.7-1.6-2.1c0-0.2,0-0.4,0-0.7s0-0.5,0-0.7l0-3.3l-6.5-0.2
			c-1.3,0-2.3,0-2.8-0.1c-0.9-0.1-1.3-0.5-1.3-1c0-0.4,0.3-1,0.8-1.7l1.3-1.5l7.2-10.5c0.7-0.9,1.5-1.4,2.5-1.4
			c1.1,0,1.7,0.5,1.7,1.4v12.2c0.2,0,0.4,0,0.6,0c1.8,0,2.7,0.5,2.7,1.5c0,0.7-0.4,1.1-1.1,1.3C453.7,91.3,453,91.3,451.8,91.3z
			 M449,78.9c-2.6,4.2-4.6,7.3-6.1,9.3l6.1,0.1V78.9z"/>
	</g>
</g>
<g>
	<g>
		<rect x="417.5" y="100.5" class="st3" width="112" height="155"/>
		<path d="M529,101v154H418V101H529 M530,100H417v156h113V100L530,100z"/>
	</g>
	<g>
		<path d="M473.3,135.8c-1.5,0-2.8-0.3-4-0.9c-1.3-0.7-2.2-1.7-2.7-3c-0.1-0.2-0.1-0.3-0.1-0.5c0-0.4,0.1-0.7,0.4-1s0.6-0.4,1-0.4
			s0.7,0.2,1,0.5l0.7,1c0.4,0.5,0.8,0.8,1.4,1.1s1.3,0.4,2.1,0.4c1.1,0,2-0.3,2.8-1c0.8-0.7,1.3-1.6,1.3-2.6c0-1.5-0.5-2.7-1.6-3.5
			c-1-0.8-2.2-1.2-3.8-1.4c-1.1-0.1-1.6-0.5-1.6-1.3c0-0.6,0.4-1,1.3-1.3l3.5-0.9c0.7-0.2,1.2-0.6,1.5-1s0.5-0.9,0.5-1.5
			c0-0.9-0.3-1.6-1-2.1c-0.7-0.5-1.7-0.8-3-0.8c-0.7,0-1.3,0.2-1.9,0.5l-1.7,1c-0.3,0.2-0.6,0.3-0.8,0.3c-0.4,0-0.7-0.1-1-0.4
			s-0.4-0.6-0.4-1c0-0.8,0.7-1.5,2.2-2.2c1.3-0.6,2.4-1,3.2-1c2.1,0,3.8,0.5,5,1.4c1.3,1,2,2.4,2,4.3c0,2.3-0.9,3.8-2.8,4.5
			c-0.2,0.1-0.4,0.1-0.6,0.2c1.3,0.5,2.3,1.2,2.9,2.1s1,2.1,1,3.6c0,1.9-0.7,3.6-2,4.9S475.3,135.8,473.3,135.8z"/>
	</g>
</g>
<g>
	<g>
		<rect x="444.3" y="138" class="st1" width="112" height="155"/>
		<path d="M555.8,138.5v154h-111v-154H555.8 M556.8,137.5h-113v156h113V137.5L556.8,137.5z"/>
	</g>
	<g>
		<path d="M500.1,173.3c-1.5,0-2.8-0.3-4-0.9c-1.3-0.7-2.2-1.7-2.7-3c-0.1-0.2-0.1-0.3-0.1-0.5c0-0.4,0.1-0.7,0.4-1s0.6-0.4,1-0.4
			s0.7,0.2,1,0.5l0.7,1c0.4,0.5,0.8,0.8,1.4,1.1s1.3,0.4,2.1,0.4c1.1,0,2-0.3,2.8-1c0.8-0.7,1.3-1.6,1.3-2.6c0-1.5-0.5-2.7-1.6-3.5
			c-1-0.8-2.2-1.2-3.8-1.4c-1.1-0.1-1.6-0.5-1.6-1.3c0-0.6,0.4-1,1.3-1.3l3.5-0.9c0.7-0.2,1.2-0.6,1.5-1s0.5-0.9,0.5-1.5
			c0-0.9-0.3-1.6-1-2.1c-0.7-0.5-1.7-0.8-3-0.8c-0.7,0-1.3,0.2-1.9,0.5l-1.7,1c-0.3,0.2-0.6,0.3-0.8,0.3c-0.4,0-0.7-0.1-1-0.4
			s-0.4-0.6-0.4-1c0-0.8,0.7-1.5,2.2-2.2c1.3-0.6,2.4-1,3.2-1c2.1,0,3.8,0.5,5,1.4c1.3,1,2,2.4,2,4.3c0,2.3-0.9,3.8-2.8,4.5
			c-0.2,0.1-0.4,0.1-0.6,0.2c1.3,0.5,2.3,1.2,2.9,2.1s1,2.1,1,3.6c0,1.9-0.7,3.6-2,4.9S502,173.3,500.1,173.3z"/>
	</g>
</g>
<g>
	<g>
		<rect x="471" y="175.5" class="st3" width="112" height="155"/>
		<path d="M582.5,176v154h-111V176H582.5 M583.5,175h-113v156h113V175L583.5,175z"/>
	</g>
	<g>
		<path d="M532.7,213.2c-0.2,0-0.6-0.1-1-0.2c-0.4-0.2-0.8-0.2-1-0.2c-0.5,0-1.2,0-2.2,0.1s-1.7,0.1-2.3,0.1c-0.4,0-0.9,0-1.7,0.1
			s-1.3,0.1-1.7,0.1c-0.1,0-0.3,0-0.5-0.1s-0.4-0.1-0.5-0.1c-0.7,0-1.1-0.3-1.3-1c-0.1-0.3-0.2-0.9-0.2-1.8c0-2.3,0.6-4.1,1.9-5.5
			c0.6-0.6,2.1-1.8,4.6-3.5c1.4-1,2.3-1.7,2.8-2.2c0.8-0.9,1.3-2,1.3-3.3c0-0.6-0.4-1.2-1.2-1.7c-0.7-0.4-1.4-0.7-2.1-0.7
			c-0.9,0-1.8,0.3-2.6,0.8l-2.1,1.6c-0.4,0.3-0.8,0.5-1,0.5c-1,0-1.5-0.4-1.5-1.2c0-0.5,0.2-0.9,0.6-1.2c1.1-1.1,2.1-1.9,3-2.3
			c1.2-0.7,2.4-1,3.6-1c1.6,0,3,0.4,4.2,1.3c1.4,1,2.1,2.2,2.1,3.7c0,1-0.1,1.9-0.4,2.8s-0.7,1.6-1.3,2.3c-0.7,0.9-2,1.9-3.7,2.9
			c-1.8,1.2-3,2-3.6,2.6c-1.1,1.1-1.6,2.5-1.6,4.1l3-0.3c2.1-0.1,3.5-0.2,4.4-0.2c0.7,0,1.4,0.1,2.1,0.4c0.9,0.3,1.3,0.8,1.3,1.4
			c0,0.4-0.1,0.7-0.4,1C533.4,213,533.1,213.2,532.7,213.2z"/>
	</g>
</g>
<g>
	<g>
		<rect x="702.3" y="25.5" class="st3" width="112" height="155"/>
		<path d="M813.8,26v154h-111V26H813.8 M814.8,25h-113v156h113V25L814.8,25z"/>
	</g>
	<g>
		<path d="M762,60.2H759l-2.9,0c-0.7,0-1.2,0-1.4-0.1c-0.5-0.2-0.7-0.5-0.7-1.1c0-1,0.8-1.5,2.3-1.5l0.7,0l0.6,0
			c0-0.5,0-1.2-0.1-2.1s-0.1-1.6-0.1-2.1c0-1.2,0.1-3.1,0.3-5.7c0.2-2.5,0.3-4.4,0.3-5.7c-1.3,1-2.1,1.5-2.5,1.5
			c-0.4,0-0.7-0.1-1-0.4s-0.4-0.6-0.4-1c0-0.5,0.4-1,1.3-1.7c0.5-0.4,1.3-1,2.2-1.8c0.9-0.9,1.7-1.3,2.5-1.3c0.7,0,1,0.4,1,1.1
			c0,0.2,0,0.6-0.1,1s-0.1,0.8-0.1,1c0,0.3,0,0.8,0.1,1.5s0.1,1.1,0.1,1.5c0,1.1-0.1,2.8-0.4,5s-0.4,3.9-0.4,5c0,0.6,0,1.3,0.1,2.1
			s0.1,1.5,0.1,2l1.5,0c0.4,0,0.7,0.1,1,0.4s0.4,0.6,0.4,1c0,0.4-0.1,0.7-0.4,1S762.4,60.2,762,60.2z"/>
	</g>
</g>
<g>
	<g>
		<rect x="729.3" y="63" class="st1" width="112" height="155"/>
		<path d="M840.8,63.5v154h-111v-154H840.8 M841.8,62.5h-113v156h113V62.5L841.8,62.5z"/>
	</g>
	<g>
		<path d="M790.3,91.3v5.4c0,0.9-0.4,1.4-1.3,1.4c-1,0-1.6-0.7-1.6-2.1c0-0.2,0-0.4,0-0.7s0-0.5,0-0.7l0-3.3L781,91
			c-1.3,0-2.3,0-2.8-0.1c-0.9-0.1-1.3-0.5-1.3-1c0-0.4,0.3-1,0.8-1.7l1.3-1.5l7.2-10.5c0.7-0.9,1.5-1.4,2.5-1.4
			c1.1,0,1.7,0.5,1.7,1.4v12.2c0.2,0,0.4,0,0.6,0c1.8,0,2.7,0.5,2.7,1.5c0,0.7-0.4,1.1-1.1,1.3C792.2,91.3,791.5,91.3,790.3,91.3z
			 M787.5,78.9c-2.6,4.2-4.6,7.3-6.1,9.3l6.1,0.1V78.9z"/>
	</g>
</g>
<g>
	<g>
		<rect x="756" y="100.5" class="st2" width="112" height="155"/>
		<path d="M867.5,101v154h-111V101H867.5 M868.5,100h-113v156h113V100L868.5,100z"/>
	</g>
	<g>
		<path d="M815.7,135.2h-2.9l-2.9,0c-0.7,0-1.2,0-1.4-0.1c-0.5-0.2-0.7-0.5-0.7-1.1c0-1,0.8-1.5,2.3-1.5l0.7,0l0.6,0
			c0-0.5,0-1.2-0.1-2.1c-0.1-0.9-0.1-1.6-0.1-2.1c0-1.2,0.1-3.1,0.3-5.7c0.2-2.5,0.3-4.4,0.3-5.7c-1.3,1-2.1,1.5-2.5,1.5
			c-0.4,0-0.7-0.1-1-0.4c-0.3-0.3-0.4-0.6-0.4-1c0-0.5,0.4-1,1.3-1.7c0.5-0.4,1.3-1,2.2-1.8c0.9-0.9,1.7-1.3,2.5-1.3
			c0.7,0,1,0.4,1,1.1c0,0.2,0,0.6-0.1,1s-0.1,0.8-0.1,1c0,0.3,0,0.8,0.1,1.5c0,0.7,0.1,1.1,0.1,1.5c0,1.1-0.1,2.8-0.4,5
			s-0.4,3.9-0.4,5c0,0.6,0,1.3,0.1,2.1s0.1,1.5,0.1,2l1.5,0c0.4,0,0.7,0.1,1,0.4c0.3,0.3,0.4,0.6,0.4,1c0,0.4-0.1,0.7-0.4,1
			C816.4,135,816.1,135.2,815.7,135.2z"/>
	</g>
</g>
<g>
	<g>
		<rect x="1040.7" y="25.5" class="st1" width="112" height="155"/>
		<path d="M1152.2,26v154h-111V26H1152.2 M1153.2,25h-113v156h113V25L1153.2,25z"/>
	</g>
	<g>
		<path d="M1100.3,60.2h-2.9l-2.9,0c-0.7,0-1.2,0-1.4-0.1c-0.5-0.2-0.7-0.5-0.7-1.1c0-1,0.8-1.5,2.3-1.5l0.7,0l0.6,0
			c0-0.5,0-1.2-0.1-2.1s-0.1-1.6-0.1-2.1c0-1.2,0.1-3.1,0.3-5.7c0.2-2.5,0.3-4.4,0.3-5.7c-1.3,1-2.1,1.5-2.5,1.5
			c-0.4,0-0.7-0.1-1-0.4s-0.4-0.6-0.4-1c0-0.5,0.4-1,1.3-1.7c0.5-0.4,1.3-1,2.2-1.8c0.9-0.9,1.7-1.3,2.5-1.3c0.7,0,1,0.4,1,1.1
			c0,0.2,0,0.6-0.1,1s-0.1,0.8-0.1,1c0,0.3,0,0.8,0.1,1.5s0.1,1.1,0.1,1.5c0,1.1-0.1,2.8-0.4,5s-0.4,3.9-0.4,5c0,0.6,0,1.3,0.1,2.1
			s0.1,1.5,0.1,2l1.5,0c0.4,0,0.7,0.1,1,0.4s0.4,0.6,0.4,1c0,0.4-0.1,0.7-0.4,1S1100.8,60.2,1100.3,60.2z"/>
	</g>
</g>
<g>
	<g>
		<rect x="1067.8" y="63" class="st2" width="112" height="155"/>
		<path d="M1179.3,63.5v154h-111v-154H1179.3 M1180.3,62.5h-113v156h113V62.5L1180.3,62.5z"/>
	</g>
	<g>
		<path d="M1129.5,97.7c-0.2,0-0.6-0.1-1-0.2c-0.4-0.2-0.8-0.2-1-0.2c-0.5,0-1.2,0-2.2,0.1s-1.7,0.1-2.3,0.1c-0.4,0-0.9,0-1.7,0.1
			c-0.7,0.1-1.3,0.1-1.7,0.1c-0.1,0-0.3,0-0.5-0.1s-0.4-0.1-0.5-0.1c-0.7,0-1.1-0.3-1.3-1c-0.1-0.3-0.2-0.9-0.2-1.8
			c0-2.3,0.6-4.1,1.9-5.5c0.6-0.6,2.1-1.8,4.6-3.5c1.4-1,2.3-1.7,2.8-2.2c0.8-0.9,1.3-2,1.3-3.3c0-0.6-0.4-1.2-1.2-1.7
			c-0.7-0.4-1.4-0.7-2.1-0.7c-0.9,0-1.8,0.3-2.6,0.8l-2.1,1.6c-0.4,0.3-0.8,0.5-1,0.5c-1,0-1.5-0.4-1.5-1.2c0-0.5,0.2-0.9,0.6-1.2
			c1.1-1.1,2.1-1.9,3-2.3c1.2-0.7,2.4-1,3.6-1c1.6,0,3,0.4,4.2,1.3c1.4,1,2.1,2.2,2.1,3.7c0,1-0.1,1.9-0.4,2.8s-0.7,1.6-1.3,2.3
			c-0.7,0.9-2,1.9-3.7,2.9c-1.8,1.2-3,2-3.6,2.6c-1.1,1.1-1.6,2.5-1.6,4.1l3-0.3c2.1-0.1,3.5-0.2,4.4-0.2c0.7,0,1.4,0.1,2.1,0.4
			c0.9,0.3,1.3,0.8,1.3,1.4c0,0.4-0.1,0.7-0.4,1S1129.9,97.7,1129.5,97.7z"/>
	</g>
</g>
<g>
	<g>
		<rect x="1094.5" y="100.5" class="st3" width="112" height="155"/>
		<path d="M1206,101v154h-111V101H1206 M1207,100h-113v156h113V100L1207,100z"/>
	</g>
	<g>
		<path d="M1149.7,136.1c-2.8,0-4.8-1-6.1-3.1c-0.2-0.3-0.3-0.6-0.3-0.8c0-0.4,0.2-0.7,0.5-1s0.6-0.4,1-0.4c0.4,0,0.8,0.2,1.1,0.6
			c0.5,0.6,0.9,1,1.2,1.2c0.6,0.4,1.5,0.6,2.6,0.6c1.7,0,3.1-0.6,4.2-1.9c1.1-1.2,1.6-2.7,1.6-4.4c0-1.4-0.2-2.6-0.7-3.5
			c-0.6-1.1-1.5-1.7-2.8-1.7c-1,0-1.9,0.1-2.6,0.4c-0.5,0.2-1.1,0.6-1.6,1.2l-1.6,1.7c-0.4,0.4-0.9,0.7-1.3,0.7
			c-0.4,0-0.7-0.1-1-0.4s-0.4-0.6-0.4-1c0-0.2,0.1-1.1,0.2-2.6c0.3-3.1,0.5-5.1,0.5-6.1c0-0.3-0.1-0.7-0.3-1.1
			c-0.2-0.4-0.3-0.7-0.3-0.9c0-0.6,0.5-0.9,1.5-0.9c0.2,0,0.5,0,0.9,0.1c0.4,0,0.7,0.1,0.9,0.1c0.6,0,1.4,0,2.5-0.1s2-0.1,2.5-0.1
			c0.3,0,0.7,0,1.2,0s0.9,0,1.2,0c0.2,0,0.5,0,0.8-0.1s0.6-0.1,0.8-0.1c0.4,0,0.7,0.1,1,0.4s0.4,0.6,0.4,1c0,1.1-1.2,1.6-3.5,1.6
			c-0.3,0-0.7,0-1.1,0s-0.7,0-0.8,0l-2.5,0l-2.5,0.1c0,0.4-0.2,2.1-0.5,4.9c1.3-1.1,3.1-1.6,5.3-1.6c2.1,0,3.8,0.8,4.9,2.5
			c1,1.4,1.4,3.2,1.4,5.4c0,2.6-0.8,4.8-2.3,6.5C1154.4,135.2,1152.3,136.1,1149.7,136.1z"/>
	</g>
</g>
<g>
	<g>
		<rect x="1121.3" y="138" class="st2" width="112" height="155"/>
		<path d="M1232.8,138.5v154h-111v-154H1232.8 M1233.8,137.5h-113v156h113V137.5L1233.8,137.5z"/>
	</g>
	<g>
		<path d="M1177.1,173.3c-1.5,0-2.8-0.3-4-0.9c-1.3-0.7-2.2-1.7-2.7-3c-0.1-0.2-0.1-0.3-0.1-0.5c0-0.4,0.1-0.7,0.4-1
			c0.3-0.3,0.6-0.4,1-0.4s0.7,0.2,1,0.5l0.7,1c0.4,0.5,0.8,0.8,1.4,1.1s1.3,0.4,2.1,0.4c1.1,0,2-0.3,2.8-1c0.8-0.7,1.3-1.6,1.3-2.6
			c0-1.5-0.5-2.7-1.6-3.5c-1-0.8-2.2-1.2-3.8-1.4c-1.1-0.1-1.6-0.5-1.6-1.3c0-0.6,0.4-1,1.3-1.3l3.5-0.9c0.7-0.2,1.2-0.6,1.5-1
			s0.5-0.9,0.5-1.5c0-0.9-0.3-1.6-1-2.1c-0.7-0.5-1.7-0.8-3-0.8c-0.7,0-1.3,0.2-1.9,0.5l-1.7,1c-0.3,0.2-0.6,0.3-0.8,0.3
			c-0.4,0-0.7-0.1-1-0.4c-0.3-0.3-0.4-0.6-0.4-1c0-0.8,0.7-1.5,2.2-2.2c1.3-0.6,2.4-1,3.2-1c2.1,0,3.8,0.5,5,1.4c1.3,1,2,2.4,2,4.3
			c0,2.3-0.9,3.8-2.8,4.5c-0.2,0.1-0.4,0.1-0.6,0.2c1.3,0.5,2.3,1.2,2.9,2.1s1,2.1,1,3.6c0,1.9-0.7,3.6-2,4.9
			S1179,173.3,1177.1,173.3z"/>
	</g>
</g>
<g>
</g>
<g>
</g>
<g>
</g>
<g>
</g>
<g>
</g>
<g>
</g>
<g>
</g>
<g>
</g>
<g>
</g>
<g>
</g>
<g>
</g>
<g>
</g>
<g>
</g>
<g>
</g>
<g>
</g>
</svg>
