<?xml version="1.0" encoding="utf-8"?>
<!-- Generator: Adobe Illustrator 24.1.1, SVG Export Plug-In . SVG Version: 6.00 Build 0)  -->
<svg version="1.1" id="Layer_1" xmlns="http://www.w3.org/2000/svg" xmlns:xlink="http://www.w3.org/1999/xlink" x="0px" y="0px"
	 viewBox="0 0 1745 481" style="enable-background:new 0 0 1745 481;" xml:space="preserve">
<style type="text/css">
	.st0{fill:#00FFFF;}
	.st1{fill:#00FF00;}
	.st2{fill:#FF0000;}
	.st3{fill:#FFFF00;}
</style>
<g>
	<path class="st0" d="M58,428.3c-5.8,0-10.5-4.7-10.5-10.5V58c0-5.8,4.7-10.5,10.5-10.5h273c5.8,0,10.5,4.7,10.5,10.5v359.8
		c0,5.8-4.7,10.5-10.5,10.5H58z"/>
	<path d="M331.1,48c5.5,0,10,4.5,10,10v359.8c0,5.5-4.5,10-10,10H58c-5.5,0-10-4.5-10-10V58c0-5.5,4.5-10,10-10H331.1 M331.1,47H58
		c-6.1,0-11,4.9-11,11v359.8c0,6.1,4.9,11,11,11h273c6.1,0,11-4.9,11-11V58C342.1,51.9,337.2,47,331.1,47L331.1,47z"/>
</g>
<g>
	<path class="st0" d="M396.5,428.3c-5.8,0-10.5-4.7-10.5-10.5V58c0-5.8,4.7-10.5,10.5-10.5h273c5.8,0,10.5,4.7,10.5,10.5v359.8
		c0,5.8-4.7,10.5-10.5,10.5H396.5z"/>
	<path d="M669.5,48c5.5,0,10,4.5,10,10v359.8c0,5.5-4.5,10-10,10h-273c-5.5,0-10-4.5-10-10V58c0-5.5,4.5-10,10-10H669.5 M669.5,47
		h-273c-6.1,0-11,4.9-11,11v359.8c0,6.1,4.9,11,11,11h273c6.1,0,11-4.9,11-11V58C680.6,51.9,675.6,47,669.5,47L669.5,47z"/>
</g>
<g>
	<path class="st0" d="M735,428.3c-5.8,0-10.5-4.7-10.5-10.5V58c0-5.8,4.7-10.5,10.5-10.5h273c5.8,0,10.5,4.7,10.5,10.5v359.8
		c0,5.8-4.7,10.5-10.5,10.5H735z"/>
	<path d="M1008,48c5.5,0,10,4.5,10,10v359.8c0,5.5-4.5,10-10,10H735c-5.5,0-10-4.5-10-10V58c0-5.5,4.5-10,10-10H1008 M1008,47H735
		c-6.1,0-11,4.9-11,11v359.8c0,6.1,4.9,11,11,11h273c6.1,0,11-4.9,11-11V58C1019.1,51.9,1014.1,47,1008,47L1008,47z"/>
</g>
<g>
	<path class="st0" d="M1073.5,428.3c-5.8,0-10.5-4.7-10.5-10.5V58c0-5.8,4.7-10.5,10.5-10.5h273c5.8,0,10.5,4.7,10.5,10.5v359.8
		c0,5.8-4.7,10.5-10.5,10.5H1073.5z"/>
	<path d="M1346.5,48c5.5,0,10,4.5,10,10v359.8c0,5.5-4.5,10-10,10h-273c-5.5,0-10-4.5-10-10V58c0-5.5,4.5-10,10-10H1346.5
		 M1346.5,47h-273c-6.1,0-11,4.9-11,11v359.8c0,6.1,4.9,11,11,11h273c6.1,0,11-4.9,11-11V58C1357.5,51.9,1352.6,47,1346.5,47
		L1346.5,47z"/>
</g>
<g>
	<path class="st0" d="M1411.9,428.3c-5.8,0-10.5-4.7-10.5-10.5V58c0-5.8,4.7-10.5,10.5-10.5h273c5.8,0,10.5,4.7,10.5,10.5v359.8
		c0,5.8-4.7,10.5-10.5,10.5H1411.9z"/>
	<path d="M1685,48c5.5,0,10,4.5,10,10v359.8c0,5.5-4.5,10-10,10h-273c-5.5,0-10-4.5-10-10V58c0-5.5,4.5-10,10-10H1685 M1685,47h-273
		c-6.1,0-11,4.9-11,11v359.8c0,6.1,4.9,11,11,11h273c6.1,0,11-4.9,11-11V58C1696,51.9,1691.1,47,1685,47L1685,47z"/>
</g>
<g>
	<g>
		<rect x="72.5" y="72.5" class="st1" width="112" height="155"/>
		<path d="M184,73v154H73V73H184 M185,72H72v156h113V72L185,72z"/>
	</g>
	<g>
		<path d="M127.7,108.1c-2.8,0-4.8-1-6.1-3.1c-0.2-0.3-0.3-0.6-0.3-0.8c0-0.4,0.2-0.7,0.5-1s0.6-0.4,1-0.4c0.4,0,0.8,0.2,1.1,0.6
			c0.5,0.6,0.9,1,1.2,1.2c0.6,0.4,1.5,0.6,2.6,0.6c1.7,0,3.1-0.6,4.2-1.9c1.1-1.2,1.6-2.7,1.6-4.4c0-1.4-0.2-2.6-0.7-3.5
			c-0.6-1.1-1.5-1.7-2.8-1.7c-1,0-1.9,0.1-2.6,0.4c-0.5,0.2-1.1,0.6-1.6,1.2l-1.6,1.7c-0.4,0.4-0.9,0.7-1.3,0.7
			c-0.4,0-0.7-0.1-1-0.4s-0.4-0.6-0.4-1c0-0.2,0.1-1.1,0.2-2.6c0.3-3.1,0.5-5.1,0.5-6.1c0-0.3-0.1-0.7-0.3-1.1s-0.3-0.7-0.3-0.9
			c0-0.6,0.5-0.9,1.5-0.9c0.2,0,0.5,0,0.9,0.1s0.7,0.1,0.9,0.1c0.6,0,1.4,0,2.5-0.1s2-0.1,2.5-0.1c0.3,0,0.7,0,1.2,0s0.9,0,1.2,0
			c0.2,0,0.5,0,0.8-0.1s0.6-0.1,0.8-0.1c0.4,0,0.7,0.1,1,0.4s0.4,0.6,0.4,1c0,1.1-1.2,1.6-3.5,1.6c-0.3,0-0.7,0-1.1,0s-0.7,0-0.8,0
			l-2.5,0l-2.5,0.1c0,0.4-0.2,2.1-0.5,4.9c1.3-1.1,3.1-1.6,5.3-1.6c2.1,0,3.8,0.8,4.9,2.5c1,1.4,1.4,3.2,1.4,5.4
			c0,2.6-0.8,4.8-2.3,6.5C132.4,107.2,130.3,108.1,127.7,108.1z"/>
	</g>
</g>
<g>
	<g>
		<rect x="99.3" y="110" class="st2" width="112" height="155"/>
		<path d="M210.8,110.5v154h-111v-154H210.8 M211.8,109.5h-113v156h113V109.5L211.8,109.5z"/>
	</g>
	<g>
		<path d="M154.4,145.6c-2.8,0-4.8-1-6.1-3.1c-0.2-0.3-0.3-0.6-0.3-0.8c0-0.4,0.2-0.7,0.5-1s0.6-0.4,1-0.4c0.4,0,0.8,0.2,1.1,0.6
			c0.5,0.6,0.9,1,1.2,1.2c0.6,0.4,1.5,0.6,2.6,0.6c1.7,0,3.1-0.6,4.2-1.9c1.1-1.2,1.6-2.7,1.6-4.4c0-1.4-0.2-2.6-0.7-3.5
			c-0.6-1.1-1.5-1.7-2.8-1.7c-1,0-1.9,0.1-2.6,0.4c-0.5,0.2-1.1,0.6-1.6,1.2l-1.6,1.7c-0.4,0.4-0.9,0.7-1.3,0.7
			c-0.4,0-0.7-0.1-1-0.4s-0.4-0.6-0.4-1c0-0.2,0.1-1.1,0.2-2.6c0.3-3.1,0.5-5.1,0.5-6.1c0-0.3-0.1-0.7-0.3-1.1s-0.3-0.7-0.3-0.9
			c0-0.6,0.5-0.9,1.5-0.9c0.2,0,0.5,0,0.9,0.1s0.7,0.1,0.9,0.1c0.6,0,1.4,0,2.5-0.1s2-0.1,2.5-0.1c0.3,0,0.7,0,1.2,0s0.9,0,1.2,0
			c0.2,0,0.5,0,0.8-0.1s0.6-0.1,0.8-0.1c0.4,0,0.7,0.1,1,0.4s0.4,0.6,0.4,1c0,1.1-1.2,1.6-3.5,1.6c-0.3,0-0.7,0-1.1,0s-0.7,0-0.8,0
			l-2.5,0l-2.5,0.1c0,0.4-0.2,2.1-0.5,4.9c1.3-1.1,3.1-1.6,5.3-1.6c2.1,0,3.8,0.8,4.9,2.5c1,1.4,1.4,3.2,1.4,5.4
			c0,2.6-0.8,4.8-2.3,6.5C159.2,144.7,157.1,145.6,154.4,145.6z"/>
	</g>
</g>
<g>
	<g>
		<rect x="126" y="147.5" class="st3" width="112" height="155"/>
		<path d="M237.5,148v154h-111V148H237.5 M238.5,147h-113v156h113V147L238.5,147z"/>
	</g>
	<g>
		<path d="M187.1,175.8v5.4c0,0.9-0.4,1.4-1.3,1.4c-1,0-1.6-0.7-1.6-2.1c0-0.2,0-0.4,0-0.7s0-0.5,0-0.7l0-3.3l-6.5-0.2
			c-1.3,0-2.3,0-2.8-0.1c-0.9-0.1-1.3-0.5-1.3-1c0-0.4,0.3-1,0.8-1.7l1.3-1.5l7.2-10.5c0.7-0.9,1.5-1.4,2.5-1.4
			c1.1,0,1.7,0.5,1.7,1.4v12.2c0.2,0,0.4,0,0.6,0c1.8,0,2.7,0.5,2.7,1.5c0,0.7-0.4,1.1-1.1,1.3C188.9,175.8,188.2,175.8,187.1,175.8
			z M184.2,163.4c-2.6,4.2-4.6,7.3-6.1,9.3l6.1,0.1V163.4z"/>
	</g>
</g>
<g>
	<g>
		<rect x="410.9" y="72.5" class="st1" width="112" height="155"/>
		<path d="M522.4,73v154h-111V73H522.4 M523.4,72h-113v156h113V72L523.4,72z"/>
	</g>
	<g>
		<path d="M472.6,107.2c-0.2,0-0.6-0.1-1-0.2s-0.8-0.2-1-0.2c-0.5,0-1.2,0-2.2,0.1s-1.7,0.1-2.3,0.1c-0.4,0-0.9,0-1.7,0.1
			s-1.3,0.1-1.7,0.1c-0.1,0-0.3,0-0.5-0.1s-0.4-0.1-0.5-0.1c-0.7,0-1.1-0.3-1.3-1c-0.1-0.3-0.2-0.9-0.2-1.8c0-2.3,0.6-4.1,1.9-5.5
			c0.6-0.6,2.1-1.8,4.6-3.5c1.4-1,2.3-1.7,2.8-2.2c0.8-0.9,1.3-2,1.3-3.3c0-0.6-0.4-1.2-1.2-1.7c-0.7-0.4-1.4-0.7-2.1-0.7
			c-0.9,0-1.8,0.3-2.6,0.8l-2.1,1.6c-0.4,0.3-0.8,0.5-1,0.5c-1,0-1.5-0.4-1.5-1.2c0-0.5,0.2-0.9,0.6-1.2c1.1-1.1,2.1-1.9,3-2.3
			c1.2-0.7,2.4-1,3.6-1c1.6,0,3,0.4,4.2,1.3c1.4,1,2.1,2.2,2.1,3.7c0,1-0.1,1.9-0.4,2.8s-0.7,1.6-1.3,2.3c-0.7,0.9-2,1.9-3.7,2.9
			c-1.8,1.2-3,2-3.6,2.6c-1.1,1.1-1.6,2.5-1.6,4.1l3-0.3c2.1-0.1,3.5-0.2,4.4-0.2c0.7,0,1.4,0.1,2.1,0.4c0.9,0.3,1.3,0.8,1.3,1.4
			c0,0.4-0.1,0.7-0.4,1S473,107.2,472.6,107.2z"/>
	</g>
</g>
<g>
	<g>
		<rect x="437.8" y="110" class="st2" width="112" height="155"/>
		<path d="M549.3,110.5v154h-111v-154H549.3 M550.3,109.5h-113v156h113V109.5L550.3,109.5z"/>
	</g>
	<g>
		<path d="M498.8,138.3v5.4c0,0.9-0.4,1.4-1.3,1.4c-1,0-1.6-0.7-1.6-2.1c0-0.2,0-0.4,0-0.7s0-0.5,0-0.7l0-3.3l-6.5-0.2
			c-1.3,0-2.3,0-2.8-0.1c-0.9-0.1-1.3-0.5-1.3-1c0-0.4,0.3-1,0.8-1.7l1.3-1.5l7.2-10.5c0.7-0.9,1.5-1.4,2.5-1.4
			c1.1,0,1.7,0.5,1.7,1.4v12.2c0.2,0,0.4,0,0.6,0c1.8,0,2.7,0.5,2.7,1.5c0,0.7-0.4,1.1-1.1,1.3C500.7,138.3,500,138.3,498.8,138.3z
			 M496,125.9c-2.6,4.2-4.6,7.3-6.1,9.3l6.1,0.1V125.9z"/>
	</g>
</g>
<g>
	<g>
		<rect x="464.5" y="147.5" class="st3" width="112" height="155"/>
		<path d="M576,148v154H465V148H576 M577,147H464v156h113V147L577,147z"/>
	</g>
	<g>
		<path d="M520.3,182.8c-1.5,0-2.8-0.3-4-0.9c-1.3-0.7-2.2-1.7-2.7-3c-0.1-0.2-0.1-0.3-0.1-0.5c0-0.4,0.1-0.7,0.4-1s0.6-0.4,1-0.4
			s0.7,0.2,1,0.5l0.7,1c0.4,0.5,0.8,0.8,1.4,1.1s1.3,0.4,2.1,0.4c1.1,0,2-0.3,2.8-1c0.8-0.7,1.3-1.6,1.3-2.6c0-1.5-0.5-2.7-1.6-3.5
			c-1-0.8-2.2-1.2-3.8-1.4c-1.1-0.1-1.6-0.5-1.6-1.3c0-0.6,0.4-1,1.3-1.3l3.5-0.9c0.7-0.2,1.2-0.6,1.5-1s0.5-0.9,0.5-1.5
			c0-0.9-0.3-1.6-1-2.1c-0.7-0.5-1.7-0.8-3-0.8c-0.7,0-1.3,0.2-1.9,0.5l-1.7,1c-0.3,0.2-0.6,0.3-0.8,0.3c-0.4,0-0.7-0.1-1-0.4
			s-0.4-0.6-0.4-1c0-0.8,0.7-1.5,2.2-2.2c1.3-0.6,2.4-1,3.2-1c2.1,0,3.8,0.5,5,1.4c1.3,1,2,2.4,2,4.3c0,2.3-0.9,3.8-2.8,4.5
			c-0.2,0.1-0.4,0.1-0.6,0.2c1.3,0.5,2.3,1.2,2.9,2.1s1,2.1,1,3.6c0,1.9-0.7,3.6-2,4.9S522.3,182.8,520.3,182.8z"/>
	</g>
</g>
<g>
	<g>
		<rect x="491.3" y="185" class="st1" width="112" height="155"/>
		<path d="M602.8,185.5v154h-111v-154H602.8 M603.8,184.5h-113v156h113V184.5L603.8,184.5z"/>
	</g>
	<g>
		<path d="M547.1,220.3c-1.5,0-2.8-0.3-4-0.9c-1.3-0.7-2.2-1.7-2.7-3c-0.1-0.2-0.1-0.3-0.1-0.5c0-0.4,0.1-0.7,0.4-1s0.6-0.4,1-0.4
			s0.7,0.2,1,0.5l0.7,1c0.4,0.5,0.8,0.8,1.4,1.1s1.3,0.4,2.1,0.4c1.1,0,2-0.3,2.8-1c0.8-0.7,1.3-1.6,1.3-2.6c0-1.5-0.5-2.7-1.6-3.5
			c-1-0.8-2.2-1.2-3.8-1.4c-1.1-0.1-1.6-0.5-1.6-1.3c0-0.6,0.4-1,1.3-1.3l3.5-0.9c0.7-0.2,1.2-0.6,1.5-1s0.5-0.9,0.5-1.5
			c0-0.9-0.3-1.6-1-2.1c-0.7-0.5-1.7-0.8-3-0.8c-0.7,0-1.3,0.2-1.9,0.5l-1.7,1c-0.3,0.2-0.6,0.3-0.8,0.3c-0.4,0-0.7-0.1-1-0.4
			s-0.4-0.6-0.4-1c0-0.8,0.7-1.5,2.2-2.2c1.3-0.6,2.4-1,3.2-1c2.1,0,3.8,0.5,5,1.4c1.3,1,2,2.4,2,4.3c0,2.3-0.9,3.8-2.8,4.5
			c-0.2,0.1-0.4,0.1-0.6,0.2c1.3,0.5,2.3,1.2,2.9,2.1s1,2.1,1,3.6c0,1.9-0.7,3.6-2,4.9S549,220.3,547.1,220.3z"/>
	</g>
</g>
<g>
	<g>
		<rect x="749.3" y="72.5" class="st3" width="112" height="155"/>
		<path d="M860.8,73v154h-111V73H860.8 M861.8,72h-113v156h113V72L861.8,72z"/>
	</g>
	<g>
		<path d="M809,107.2H806l-2.9,0c-0.7,0-1.2,0-1.4-0.1c-0.5-0.2-0.7-0.5-0.7-1.1c0-1,0.8-1.5,2.3-1.5l0.7,0l0.6,0
			c0-0.5,0-1.2-0.1-2.1s-0.1-1.6-0.1-2.1c0-1.2,0.1-3.1,0.3-5.7c0.2-2.5,0.3-4.4,0.3-5.7c-1.3,1-2.1,1.5-2.5,1.5
			c-0.4,0-0.7-0.1-1-0.4s-0.4-0.6-0.4-1c0-0.5,0.4-1,1.3-1.7c0.5-0.4,1.3-1,2.2-1.8c0.9-0.9,1.7-1.3,2.5-1.3c0.7,0,1,0.4,1,1.1
			c0,0.2,0,0.6-0.1,1s-0.1,0.8-0.1,1c0,0.3,0,0.8,0.1,1.5s0.1,1.1,0.1,1.5c0,1.1-0.1,2.8-0.4,5s-0.4,3.9-0.4,5c0,0.6,0,1.3,0.1,2.1
			s0.1,1.5,0.1,2l1.5,0c0.4,0,0.7,0.1,1,0.4s0.4,0.6,0.4,1c0,0.4-0.1,0.7-0.4,1S809.4,107.2,809,107.2z"/>
	</g>
</g>
<g>
	<g>
		<rect x="776.3" y="110" class="st1" width="112" height="155"/>
		<path d="M887.8,110.5v154h-111v-154H887.8 M888.8,109.5h-113v156h113V109.5L888.8,109.5z"/>
	</g>
	<g>
		<path d="M837.3,138.3v5.4c0,0.9-0.4,1.4-1.3,1.4c-1,0-1.6-0.7-1.6-2.1c0-0.2,0-0.4,0-0.7s0-0.5,0-0.7l0-3.3L828,138
			c-1.3,0-2.3,0-2.8-0.1c-0.9-0.1-1.3-0.5-1.3-1c0-0.4,0.3-1,0.8-1.7l1.3-1.5l7.2-10.5c0.7-0.9,1.5-1.4,2.5-1.4
			c1.1,0,1.7,0.5,1.7,1.4v12.2c0.2,0,0.4,0,0.6,0c1.8,0,2.7,0.5,2.7,1.5c0,0.7-0.4,1.1-1.1,1.3C839.2,138.3,838.5,138.3,837.3,138.3
			z M834.5,125.9c-2.6,4.2-4.6,7.3-6.1,9.3l6.1,0.1V125.9z"/>
	</g>
</g>
<g>
	<g>
		<rect x="803" y="147.5" class="st2" width="112" height="155"/>
		<path d="M914.5,148v154h-111V148H914.5 M915.5,147h-113v156h113V147L915.5,147z"/>
	</g>
	<g>
		<path d="M862.7,182.2h-2.9l-2.9,0c-0.7,0-1.2,0-1.4-0.1c-0.5-0.2-0.7-0.5-0.7-1.1c0-1,0.8-1.5,2.3-1.5l0.7,0l0.6,0
			c0-0.5,0-1.2-0.1-2.1c-0.1-0.9-0.1-1.6-0.1-2.1c0-1.2,0.1-3.1,0.3-5.7c0.2-2.5,0.3-4.4,0.3-5.7c-1.3,1-2.1,1.5-2.5,1.5
			c-0.4,0-0.7-0.1-1-0.4c-0.3-0.3-0.4-0.6-0.4-1c0-0.5,0.4-1,1.3-1.7c0.5-0.4,1.3-1,2.2-1.8c0.9-0.9,1.7-1.3,2.5-1.3
			c0.7,0,1,0.4,1,1.1c0,0.2,0,0.6-0.1,1s-0.1,0.8-0.1,1c0,0.3,0,0.8,0.1,1.5c0,0.7,0.1,1.1,0.1,1.5c0,1.1-0.1,2.8-0.4,5
			s-0.4,3.9-0.4,5c0,0.6,0,1.3,0.1,2.1s0.1,1.5,0.1,2l1.5,0c0.4,0,0.7,0.1,1,0.4c0.3,0.3,0.4,0.6,0.4,1c0,0.4-0.1,0.7-0.4,1
			C863.4,182,863.1,182.2,862.7,182.2z"/>
	</g>
</g>
<g>
	<g>
		<rect x="1087.7" y="72.5" class="st1" width="112" height="155"/>
		<path d="M1199.2,73v154h-111V73H1199.2 M1200.2,72h-113v156h113V72L1200.2,72z"/>
	</g>
	<g>
		<path d="M1147.3,107.2h-2.9l-2.9,0c-0.7,0-1.2,0-1.4-0.1c-0.5-0.2-0.7-0.5-0.7-1.1c0-1,0.8-1.5,2.3-1.5l0.7,0l0.6,0
			c0-0.5,0-1.2-0.1-2.1s-0.1-1.6-0.1-2.1c0-1.2,0.1-3.1,0.3-5.7c0.2-2.5,0.3-4.4,0.3-5.7c-1.3,1-2.1,1.5-2.5,1.5
			c-0.4,0-0.7-0.1-1-0.4s-0.4-0.6-0.4-1c0-0.5,0.4-1,1.3-1.7c0.5-0.4,1.3-1,2.2-1.8c0.9-0.9,1.7-1.3,2.5-1.3c0.7,0,1,0.4,1,1.1
			c0,0.2,0,0.6-0.1,1s-0.1,0.8-0.1,1c0,0.3,0,0.8,0.1,1.5s0.1,1.1,0.1,1.5c0,1.1-0.1,2.8-0.4,5s-0.4,3.9-0.4,5c0,0.6,0,1.3,0.1,2.1
			s0.1,1.5,0.1,2l1.5,0c0.4,0,0.7,0.1,1,0.4s0.4,0.6,0.4,1c0,0.4-0.1,0.7-0.4,1S1147.8,107.2,1147.3,107.2z"/>
	</g>
</g>
<g>
	<g>
		<rect x="1114.8" y="110" class="st2" width="112" height="155"/>
		<path d="M1226.3,110.5v154h-111v-154H1226.3 M1227.3,109.5h-113v156h113V109.5L1227.3,109.5z"/>
	</g>
	<g>
		<path d="M1176.5,144.7c-0.2,0-0.6-0.1-1-0.2c-0.4-0.2-0.8-0.2-1-0.2c-0.5,0-1.2,0-2.2,0.1s-1.7,0.1-2.3,0.1c-0.4,0-0.9,0-1.7,0.1
			c-0.7,0.1-1.3,0.1-1.7,0.1c-0.1,0-0.3,0-0.5-0.1s-0.4-0.1-0.5-0.1c-0.7,0-1.1-0.3-1.3-1c-0.1-0.3-0.2-0.9-0.2-1.8
			c0-2.3,0.6-4.1,1.9-5.5c0.6-0.6,2.1-1.8,4.6-3.5c1.4-1,2.3-1.7,2.8-2.2c0.8-0.9,1.3-2,1.3-3.3c0-0.6-0.4-1.2-1.2-1.7
			c-0.7-0.4-1.4-0.7-2.1-0.7c-0.9,0-1.8,0.3-2.6,0.8l-2.1,1.6c-0.4,0.3-0.8,0.5-1,0.5c-1,0-1.5-0.4-1.5-1.2c0-0.5,0.2-0.9,0.6-1.2
			c1.1-1.1,2.1-1.9,3-2.3c1.2-0.7,2.4-1,3.6-1c1.6,0,3,0.4,4.2,1.3c1.4,1,2.1,2.2,2.1,3.7c0,1-0.1,1.9-0.4,2.8s-0.7,1.6-1.3,2.3
			c-0.7,0.9-2,1.9-3.7,2.9c-1.8,1.2-3,2-3.6,2.6c-1.1,1.1-1.6,2.5-1.6,4.1l3-0.3c2.1-0.1,3.5-0.2,4.4-0.2c0.7,0,1.4,0.1,2.1,0.4
			c0.9,0.3,1.3,0.8,1.3,1.4c0,0.4-0.1,0.7-0.4,1S1176.9,144.7,1176.5,144.7z"/>
	</g>
</g>
<g>
	<g>
		<rect x="1141.5" y="147.5" class="st3" width="112" height="155"/>
		<path d="M1253,148v154h-111V148H1253 M1254,147h-113v156h113V147L1254,147z"/>
	</g>
	<g>
		<path d="M1196.7,183.1c-2.8,0-4.8-1-6.1-3.1c-0.2-0.3-0.3-0.6-0.3-0.8c0-0.4,0.2-0.7,0.5-1s0.6-0.4,1-0.4c0.4,0,0.8,0.2,1.1,0.6
			c0.5,0.6,0.9,1,1.2,1.2c0.6,0.4,1.5,0.6,2.6,0.6c1.7,0,3.1-0.6,4.2-1.9c1.1-1.2,1.6-2.7,1.6-4.4c0-1.4-0.2-2.6-0.7-3.5
			c-0.6-1.1-1.5-1.7-2.8-1.7c-1,0-1.9,0.1-2.6,0.4c-0.5,0.2-1.1,0.6-1.6,1.2l-1.6,1.7c-0.4,0.4-0.9,0.7-1.3,0.7
			c-0.4,0-0.7-0.1-1-0.4s-0.4-0.6-0.4-1c0-0.2,0.1-1.1,0.2-2.6c0.3-3.1,0.5-5.1,0.5-6.1c0-0.3-0.1-0.7-0.3-1.1
			c-0.2-0.4-0.3-0.7-0.3-0.9c0-0.6,0.5-0.9,1.5-0.9c0.2,0,0.5,0,0.9,0.1c0.4,0,0.7,0.1,0.9,0.1c0.6,0,1.4,0,2.5-0.1s2-0.1,2.5-0.1
			c0.3,0,0.7,0,1.2,0s0.9,0,1.2,0c0.2,0,0.5,0,0.8-0.1s0.6-0.1,0.8-0.1c0.4,0,0.7,0.1,1,0.4s0.4,0.6,0.4,1c0,1.1-1.2,1.6-3.5,1.6
			c-0.3,0-0.7,0-1.1,0s-0.7,0-0.8,0l-2.5,0l-2.5,0.1c0,0.4-0.2,2.1-0.5,4.9c1.3-1.1,3.1-1.6,5.3-1.6c2.1,0,3.8,0.8,4.9,2.5
			c1,1.4,1.4,3.2,1.4,5.4c0,2.6-0.8,4.8-2.3,6.5C1201.4,182.2,1199.3,183.1,1196.7,183.1z"/>
	</g>
</g>
<g>
	<g>
		<rect x="1168.3" y="185" class="st2" width="112" height="155"/>
		<path d="M1279.8,185.5v154h-111v-154H1279.8 M1280.8,184.5h-113v156h113V184.5L1280.8,184.5z"/>
	</g>
	<g>
		<path d="M1224.1,220.3c-1.5,0-2.8-0.3-4-0.9c-1.3-0.7-2.2-1.7-2.7-3c-0.1-0.2-0.1-0.3-0.1-0.5c0-0.4,0.1-0.7,0.4-1
			c0.3-0.3,0.6-0.4,1-0.4s0.7,0.2,1,0.5l0.7,1c0.4,0.5,0.8,0.8,1.4,1.1s1.3,0.4,2.1,0.4c1.1,0,2-0.3,2.8-1c0.8-0.7,1.3-1.6,1.3-2.6
			c0-1.5-0.5-2.7-1.6-3.5c-1-0.8-2.2-1.2-3.8-1.4c-1.1-0.1-1.6-0.5-1.6-1.3c0-0.6,0.4-1,1.3-1.3l3.5-0.9c0.7-0.2,1.2-0.6,1.5-1
			s0.5-0.9,0.5-1.5c0-0.9-0.3-1.6-1-2.1c-0.7-0.5-1.7-0.8-3-0.8c-0.7,0-1.3,0.2-1.9,0.5l-1.7,1c-0.3,0.2-0.6,0.3-0.8,0.3
			c-0.4,0-0.7-0.1-1-0.4c-0.3-0.3-0.4-0.6-0.4-1c0-0.8,0.7-1.5,2.2-2.2c1.3-0.6,2.4-1,3.2-1c2.1,0,3.8,0.5,5,1.4c1.3,1,2,2.4,2,4.3
			c0,2.3-0.9,3.8-2.8,4.5c-0.2,0.1-0.4,0.1-0.6,0.2c1.3,0.5,2.3,1.2,2.9,2.1s1,2.1,1,3.6c0,1.9-0.7,3.6-2,4.9
			S1226,220.3,1224.1,220.3z"/>
	</g>
</g>
<g>
	<g>
		<rect x="1195" y="222.5" class="st3" width="112" height="155"/>
		<path d="M1306.5,223v154h-111V223H1306.5 M1307.5,222h-113v156h113V222L1307.5,222z"/>
	</g>
	<g>
		<path d="M1256.7,260.2c-0.2,0-0.6-0.1-1-0.2c-0.4-0.2-0.8-0.2-1-0.2c-0.5,0-1.2,0-2.2,0.1s-1.7,0.1-2.3,0.1c-0.4,0-0.9,0-1.7,0.1
			c-0.7,0.1-1.3,0.1-1.7,0.1c-0.1,0-0.3,0-0.5-0.1s-0.4-0.1-0.5-0.1c-0.7,0-1.1-0.3-1.3-1c-0.1-0.3-0.2-0.9-0.2-1.8
			c0-2.3,0.6-4.1,1.9-5.5c0.6-0.6,2.1-1.8,4.6-3.5c1.4-1,2.3-1.7,2.8-2.2c0.8-0.9,1.3-2,1.3-3.3c0-0.6-0.4-1.2-1.2-1.7
			c-0.7-0.4-1.4-0.7-2.1-0.7c-0.9,0-1.8,0.3-2.6,0.8l-2.1,1.6c-0.4,0.3-0.8,0.5-1,0.5c-1,0-1.5-0.4-1.5-1.2c0-0.5,0.2-0.9,0.6-1.2
			c1.1-1.1,2.1-1.9,3-2.3c1.2-0.7,2.4-1,3.6-1c1.6,0,3,0.4,4.2,1.3c1.4,1,2.1,2.2,2.1,3.7c0,1-0.1,1.9-0.4,2.8s-0.7,1.6-1.3,2.3
			c-0.7,0.9-2,1.9-3.7,2.9c-1.8,1.2-3,2-3.6,2.6c-1.1,1.1-1.6,2.5-1.6,4.1l3-0.3c2.1-0.1,3.5-0.2,4.4-0.2c0.7,0,1.4,0.1,2.1,0.4
			c0.9,0.3,1.3,0.8,1.3,1.4c0,0.4-0.1,0.7-0.4,1C1257.4,260,1257.1,260.2,1256.7,260.2z"/>
	</g>
</g>
<g>
</g>
<g>
</g>
<g>
</g>
<g>
</g>
<g>
</g>
<g>
</g>
<g>
</g>
<g>
</g>
<g>
</g>
<g>
</g>
<g>
</g>
<g>
</g>
<g>
</g>
<g>
</g>
<g>
</g>
</svg>
