<?xml version="1.0" encoding="utf-8"?>
<!-- Generator: Adobe Illustrator 24.1.1, SVG Export Plug-In . SVG Version: 6.00 Build 0)  -->
<svg version="1.1" id="Layer_1" xmlns="http://www.w3.org/2000/svg" xmlns:xlink="http://www.w3.org/1999/xlink" x="0px" y="0px"
	 viewBox="0 0 453 453" style="enable-background:new 0 0 453 453;" xml:space="preserve">
<style type="text/css">
	.st0{fill:#FFFF00;}
	.st1{fill:#4646FF;}
	.st2{fill:#00FF00;}
	.st3{fill:#FF0000;}
</style>
<g>
	<rect x="1.5" y="1.5" class="st0" width="150" height="150"/>
	<path d="M150,3v147H3V3H150 M153,0H0v153h153V0L153,0z"/>
</g>
<g>
	<rect x="151.5" y="1.5" class="st1" width="150" height="150"/>
	<path d="M300,3v147H153V3H300 M303,0H150v153h153V0L303,0z"/>
</g>
<g>
	<rect x="301.5" y="1.5" class="st2" width="150" height="150"/>
	<path d="M450,3v147H303V3H450 M453,0H300v153h153V0L453,0z"/>
</g>
<g>
	<rect x="1.5" y="151.5" class="st1" width="150" height="150"/>
	<path d="M150,153v147H3V153H150 M153,150H0v153h153V150L153,150z"/>
</g>
<g>
	<rect x="151.5" y="151.5" class="st3" width="150" height="150"/>
	<path d="M300,153v147H153V153H300 M303,150H150v153h153V150L303,150z"/>
</g>
<g>
	<rect x="301.5" y="151.5" class="st0" width="150" height="150"/>
	<path d="M450,153v147H303V153H450 M453,150H300v153h153V150L453,150z"/>
</g>
<g>
	<rect x="1.5" y="301.5" class="st2" width="150" height="150"/>
	<path d="M150,303v147H3V303H150 M153,300H0v153h153V300L153,300z"/>
</g>
<g>
	<rect x="151.5" y="301.5" class="st0" width="150" height="150"/>
	<path d="M300,303v147H153V303H300 M303,300H150v153h153V300L303,300z"/>
</g>
<g>
	<rect x="301.5" y="301.5" class="st2" width="150" height="150"/>
	<path d="M450,303v147H303V303H450 M453,300H300v153h153V300L453,300z"/>
</g>
<g>
	<path d="M80.9,87h-3.6l-3.6,0c-0.8,0-1.4-0.1-1.8-0.2c-0.6-0.2-0.9-0.7-0.9-1.4c0-1.2,0.9-1.8,2.8-1.8l0.9,0l0.7,0
		c0-0.6-0.1-1.4-0.2-2.6c-0.1-1.1-0.2-2-0.2-2.5c0-1.5,0.1-3.9,0.4-7c0.3-3.1,0.4-5.4,0.4-7c-1.6,1.3-2.6,1.9-3.1,1.9
		c-0.5,0-0.9-0.2-1.3-0.5c-0.4-0.4-0.5-0.8-0.5-1.2c0-0.6,0.5-1.3,1.6-2.1c0.7-0.5,1.6-1.2,2.8-2.2c1.1-1.1,2.1-1.6,3-1.6
		c0.8,0,1.2,0.5,1.2,1.4c0,0.3,0,0.7-0.1,1.2c-0.1,0.5-0.1,1-0.1,1.2c0,0.4,0,1,0.1,1.8c0,0.8,0.1,1.4,0.1,1.8
		c0,1.4-0.1,3.4-0.4,6.1c-0.3,2.7-0.4,4.8-0.4,6.1c0,0.7,0,1.5,0.1,2.5c0.1,1,0.2,1.8,0.2,2.5l1.9,0c0.5,0,0.9,0.2,1.3,0.5
		c0.3,0.3,0.5,0.7,0.5,1.2c0,0.5-0.2,0.9-0.5,1.2C81.8,86.9,81.4,87,80.9,87z"/>
</g>
<g>
	<path d="M233.4,87c-0.3,0-0.7-0.1-1.3-0.3c-0.5-0.2-1-0.3-1.3-0.3c-0.6,0-1.5,0-2.8,0.1s-2.2,0.1-2.8,0.1c-0.5,0-1.2,0.1-2.1,0.2
		c-0.9,0.1-1.6,0.2-2.1,0.2c-0.1,0-0.3,0-0.6-0.1s-0.4-0.1-0.6-0.1c-0.8,0-1.4-0.4-1.6-1.2c-0.1-0.4-0.2-1.1-0.2-2.2
		c0-2.8,0.8-5.1,2.3-6.8c0.7-0.8,2.6-2.2,5.7-4.3c1.7-1.2,2.9-2.1,3.5-2.8c1-1.2,1.6-2.5,1.6-4.1c0-0.8-0.5-1.5-1.5-2.1
		c-0.9-0.5-1.7-0.8-2.6-0.8c-1.1,0-2.2,0.3-3.2,1l-2.6,2c-0.5,0.4-0.9,0.6-1.2,0.6c-1.2,0-1.9-0.5-1.9-1.5c0-0.6,0.2-1.1,0.7-1.5
		c1.4-1.3,2.6-2.3,3.7-2.9c1.5-0.8,3-1.2,4.5-1.2c2,0,3.7,0.5,5.2,1.6c1.7,1.2,2.6,2.7,2.6,4.6c0,1.2-0.2,2.4-0.5,3.4
		c-0.3,1-0.9,2-1.6,2.8c-0.9,1.1-2.4,2.3-4.6,3.6c-2.3,1.4-3.8,2.5-4.5,3.2c-1.3,1.4-2,3.1-2,5l3.7-0.3c2.6-0.1,4.4-0.2,5.5-0.2
		c0.9,0,1.8,0.2,2.6,0.5c1.1,0.4,1.6,1,1.6,1.8c0,0.5-0.2,0.9-0.5,1.3C234.3,86.8,233.9,87,233.4,87z"/>
</g>
<g>
	<path d="M376.1,87.8c-1.8,0-3.5-0.4-4.9-1.1c-1.6-0.9-2.7-2.1-3.3-3.7c-0.1-0.2-0.1-0.4-0.1-0.6c0-0.5,0.2-0.9,0.6-1.2
		c0.4-0.3,0.8-0.5,1.3-0.5s0.9,0.2,1.2,0.7l0.8,1.2c0.4,0.6,1,1,1.8,1.3c0.7,0.3,1.6,0.4,2.6,0.4c1.3,0,2.5-0.4,3.5-1.2
		c1-0.9,1.6-1.9,1.6-3.2c0-1.8-0.7-3.3-2-4.4c-1.2-0.9-2.7-1.5-4.7-1.7c-1.3-0.1-2-0.7-2-1.6c0-0.7,0.5-1.3,1.6-1.6l4.3-1.1
		c0.8-0.3,1.5-0.7,1.9-1.2c0.4-0.5,0.6-1.1,0.7-1.9c0-1.1-0.4-1.9-1.2-2.6c-0.9-0.7-2.1-1-3.7-1c-0.8,0-1.6,0.2-2.4,0.6l-2,1.3
		c-0.4,0.3-0.7,0.4-1,0.4c-0.5,0-0.9-0.2-1.2-0.6c-0.3-0.4-0.5-0.8-0.5-1.3c0-1,0.9-1.9,2.8-2.7c1.6-0.8,2.9-1.2,4-1.2
		c2.6,0,4.6,0.6,6.2,1.7c1.6,1.2,2.4,3,2.4,5.3c0,2.8-1.1,4.7-3.4,5.6c-0.2,0.1-0.4,0.2-0.7,0.3c1.6,0.6,2.8,1.5,3.6,2.6
		c0.8,1.2,1.2,2.6,1.2,4.4c0,2.4-0.8,4.4-2.5,6C380.6,87,378.5,87.8,376.1,87.8z"/>
</g>
<g>
	<path d="M380.9,237h-3.6l-3.6,0c-0.8,0-1.4-0.1-1.8-0.2c-0.6-0.2-0.9-0.7-0.9-1.4c0-1.2,0.9-1.8,2.8-1.8l0.9,0l0.7,0
		c0-0.6-0.1-1.4-0.2-2.6c-0.1-1.1-0.2-2-0.2-2.5c0-1.5,0.1-3.9,0.4-7c0.3-3.1,0.4-5.4,0.4-7c-1.6,1.3-2.6,1.9-3.1,1.9
		c-0.5,0-0.9-0.2-1.3-0.5s-0.5-0.8-0.5-1.2c0-0.6,0.5-1.3,1.6-2.1c0.7-0.5,1.6-1.2,2.8-2.2c1.1-1.1,2.1-1.6,3-1.6
		c0.8,0,1.2,0.5,1.2,1.4c0,0.3,0,0.7-0.1,1.2c-0.1,0.5-0.1,1-0.1,1.2c0,0.4,0,1,0.1,1.8c0,0.8,0.1,1.4,0.1,1.8
		c0,1.4-0.1,3.4-0.4,6.1c-0.3,2.7-0.4,4.8-0.4,6.1c0,0.7,0,1.5,0.1,2.5c0.1,1,0.2,1.8,0.2,2.5l1.9,0c0.5,0,0.9,0.2,1.3,0.5
		c0.3,0.3,0.5,0.7,0.5,1.2c0,0.5-0.2,0.9-0.5,1.2C381.8,236.9,381.4,237,380.9,237z"/>
</g>
<g>
	<path d="M383.4,387c-0.3,0-0.7-0.1-1.3-0.3c-0.5-0.2-1-0.3-1.3-0.3c-0.6,0-1.5,0-2.8,0.1s-2.2,0.1-2.8,0.1c-0.5,0-1.2,0.1-2.1,0.2
		c-0.9,0.1-1.6,0.2-2.1,0.2c-0.1,0-0.3,0-0.6-0.1c-0.3,0-0.4-0.1-0.6-0.1c-0.8,0-1.4-0.4-1.6-1.2c-0.1-0.4-0.2-1.1-0.2-2.2
		c0-2.8,0.8-5.1,2.3-6.8c0.7-0.8,2.6-2.2,5.7-4.3c1.7-1.2,2.9-2.1,3.5-2.8c1-1.2,1.6-2.5,1.6-4.1c0-0.8-0.5-1.5-1.5-2.1
		c-0.9-0.5-1.7-0.8-2.6-0.8c-1.1,0-2.2,0.3-3.2,1l-2.6,2c-0.5,0.4-0.9,0.6-1.2,0.6c-1.2,0-1.9-0.5-1.9-1.5c0-0.6,0.2-1.1,0.7-1.5
		c1.4-1.3,2.6-2.3,3.7-2.9c1.5-0.8,3-1.2,4.5-1.2c2,0,3.7,0.5,5.2,1.6c1.7,1.2,2.6,2.7,2.6,4.6c0,1.2-0.2,2.4-0.5,3.4
		c-0.3,1-0.9,2-1.6,2.8c-0.9,1.1-2.4,2.3-4.6,3.6c-2.3,1.4-3.8,2.5-4.5,3.2c-1.3,1.4-2,3.1-2,5l3.7-0.3c2.6-0.1,4.4-0.2,5.5-0.2
		c0.9,0,1.8,0.2,2.6,0.5c1.1,0.4,1.6,1,1.6,1.8c0,0.5-0.2,0.9-0.5,1.3C384.3,386.8,383.9,387,383.4,387z"/>
</g>
<g>
	<path d="M76.1,387.8c-1.8,0-3.5-0.4-4.9-1.1c-1.6-0.9-2.7-2.1-3.3-3.7c-0.1-0.2-0.1-0.4-0.1-0.6c0-0.5,0.2-0.9,0.6-1.2
		c0.4-0.3,0.8-0.5,1.3-0.5c0.5,0,0.9,0.2,1.2,0.7l0.8,1.2c0.4,0.6,1,1,1.8,1.3c0.7,0.3,1.6,0.4,2.6,0.4c1.3,0,2.5-0.4,3.5-1.2
		c1-0.9,1.6-1.9,1.6-3.2c0-1.8-0.7-3.3-2-4.4c-1.2-0.9-2.7-1.5-4.7-1.7c-1.3-0.1-2-0.7-2-1.6c0-0.7,0.5-1.3,1.6-1.6l4.3-1.1
		c0.8-0.3,1.5-0.7,1.9-1.2c0.4-0.5,0.6-1.1,0.7-1.9c0-1.1-0.4-1.9-1.2-2.6c-0.9-0.7-2.1-1-3.7-1c-0.8,0-1.6,0.2-2.4,0.6l-2,1.3
		c-0.4,0.3-0.7,0.4-1,0.4c-0.5,0-0.9-0.2-1.2-0.6c-0.3-0.4-0.5-0.8-0.5-1.3c0-1,0.9-1.9,2.8-2.7c1.6-0.8,2.9-1.2,4-1.2
		c2.6,0,4.6,0.6,6.2,1.7c1.6,1.2,2.4,3,2.4,5.3c0,2.8-1.1,4.7-3.4,5.6c-0.2,0.1-0.4,0.2-0.7,0.3c1.6,0.6,2.8,1.5,3.6,2.6
		c0.8,1.2,1.2,2.6,1.2,4.4c0,2.4-0.8,4.4-2.5,6C80.6,387,78.5,387.8,76.1,387.8z"/>
</g>
<g>
	<path d="M83.4,237c-0.3,0-0.7-0.1-1.3-0.3c-0.5-0.2-1-0.3-1.3-0.3c-0.6,0-1.5,0-2.8,0.1s-2.2,0.1-2.8,0.1c-0.5,0-1.2,0.1-2.1,0.2
		c-0.9,0.1-1.6,0.2-2.1,0.2c-0.1,0-0.3,0-0.6-0.1s-0.4-0.1-0.6-0.1c-0.8,0-1.4-0.4-1.6-1.2c-0.1-0.4-0.2-1.1-0.2-2.2
		c0-2.8,0.8-5.1,2.3-6.8c0.7-0.8,2.6-2.2,5.7-4.3c1.7-1.2,2.9-2.1,3.5-2.8c1-1.2,1.6-2.5,1.6-4.1c0-0.8-0.5-1.5-1.5-2.1
		c-0.9-0.5-1.7-0.8-2.6-0.8c-1.1,0-2.2,0.3-3.2,1l-2.6,2c-0.5,0.4-0.9,0.6-1.2,0.6c-1.2,0-1.9-0.5-1.9-1.5c0-0.6,0.2-1.1,0.7-1.5
		c1.4-1.3,2.6-2.3,3.7-2.9c1.5-0.8,3-1.2,4.5-1.2c2,0,3.7,0.5,5.2,1.6c1.7,1.2,2.6,2.7,2.6,4.6c0,1.2-0.2,2.4-0.5,3.4
		c-0.3,1-0.9,2-1.6,2.8c-0.9,1.1-2.4,2.3-4.6,3.6c-2.3,1.4-3.8,2.5-4.5,3.2c-1.3,1.4-2,3.1-2,5l3.7-0.3c2.6-0.1,4.4-0.2,5.5-0.2
		c0.9,0,1.8,0.2,2.6,0.5c1.1,0.4,1.6,1,1.6,1.8c0,0.5-0.2,0.9-0.5,1.3C84.3,236.8,83.9,237,83.4,237z"/>
</g>
<g>
	<path d="M226.1,237.8c-1.8,0-3.5-0.4-4.9-1.1c-1.6-0.9-2.7-2.1-3.3-3.7c-0.1-0.2-0.1-0.4-0.1-0.6c0-0.5,0.2-0.9,0.6-1.2
		c0.4-0.3,0.8-0.5,1.3-0.5c0.5,0,0.9,0.2,1.2,0.7l0.8,1.2c0.4,0.6,1,1,1.8,1.3c0.7,0.3,1.6,0.4,2.6,0.4c1.3,0,2.5-0.4,3.5-1.2
		c1-0.9,1.6-1.9,1.6-3.2c0-1.8-0.7-3.3-2-4.4c-1.2-0.9-2.7-1.5-4.7-1.7c-1.3-0.1-2-0.7-2-1.6c0-0.7,0.5-1.3,1.6-1.6l4.3-1.1
		c0.8-0.3,1.5-0.7,1.9-1.2c0.4-0.5,0.6-1.1,0.7-1.9c0-1.1-0.4-1.9-1.2-2.6c-0.9-0.7-2.1-1-3.7-1c-0.8,0-1.6,0.2-2.4,0.6l-2,1.3
		c-0.4,0.3-0.7,0.4-1,0.4c-0.5,0-0.9-0.2-1.2-0.6c-0.3-0.4-0.5-0.8-0.5-1.3c0-1,0.9-1.9,2.8-2.7c1.6-0.8,2.9-1.2,4-1.2
		c2.6,0,4.6,0.6,6.2,1.7c1.6,1.2,2.4,3,2.4,5.3c0,2.8-1.1,4.7-3.4,5.6c-0.2,0.1-0.4,0.2-0.7,0.3c1.6,0.6,2.8,1.5,3.6,2.6
		c0.8,1.2,1.2,2.6,1.2,4.4c0,2.4-0.8,4.4-2.5,6C230.6,237,228.5,237.8,226.1,237.8z"/>
</g>
<g>
	<path d="M230.9,387h-3.6l-3.6,0c-0.8,0-1.4-0.1-1.8-0.2c-0.6-0.2-0.9-0.7-0.9-1.4c0-1.2,0.9-1.8,2.8-1.8l0.9,0l0.7,0
		c0-0.6-0.1-1.4-0.2-2.6c-0.1-1.1-0.2-2-0.2-2.5c0-1.5,0.1-3.9,0.4-7c0.3-3.1,0.4-5.4,0.4-7c-1.6,1.3-2.6,1.9-3.1,1.9
		c-0.5,0-0.9-0.2-1.3-0.5c-0.4-0.4-0.5-0.8-0.5-1.2c0-0.6,0.5-1.3,1.6-2.1c0.7-0.5,1.6-1.2,2.8-2.2c1.1-1.1,2.1-1.6,3-1.6
		c0.8,0,1.2,0.5,1.2,1.4c0,0.3,0,0.7-0.1,1.2c-0.1,0.5-0.1,1-0.1,1.2c0,0.4,0,1,0.1,1.8c0,0.8,0.1,1.4,0.1,1.8
		c0,1.4-0.1,3.4-0.4,6.1c-0.3,2.7-0.4,4.8-0.4,6.1c0,0.7,0,1.5,0.1,2.5c0.1,1,0.2,1.8,0.2,2.5l1.9,0c0.5,0,0.9,0.2,1.3,0.5
		c0.3,0.3,0.5,0.7,0.5,1.2c0,0.5-0.2,0.9-0.5,1.2C231.8,386.9,231.4,387,230.9,387z"/>
</g>
<g>
</g>
<g>
</g>
<g>
</g>
<g>
</g>
<g>
</g>
<g>
</g>
<g>
</g>
<g>
</g>
<g>
</g>
<g>
</g>
<g>
</g>
<g>
</g>
<g>
</g>
<g>
</g>
<g>
</g>
</svg>
